<?xml version="1.0" standalone="no"?>
<!DOCTYPE svg PUBLIC "-//W3C//DTD SVG 20010904//EN"
 "http://www.w3.org/TR/2001/REC-SVG-20010904/DTD/svg10.dtd">
<svg version="1.0" xmlns="http://www.w3.org/2000/svg"
 width="260.000000pt" height="260.000000pt" viewBox="0 0 260.000000 260.000000"
 preserveAspectRatio="xMidYMid meet">
<metadata>
Created by potrace 1.11, written by Peter Selinger 2001-2013
</metadata>
<g transform="translate(0.000000,260.000000) scale(0.100000,-0.100000)"
fill="#000000" stroke="none">
<path d="M245 2551 c-4 -8 -42 -187 -60 -291 -2 -14 -27 -144 -54 -290 -28
-146 -52 -278 -55 -295 -3 -16 -12 -64 -20 -105 -11 -57 -12 -76 -3 -82 11 -7
61 -12 81 -9 5 1 4 -4 -2 -11 -8 -10 -2 -19 26 -37 20 -13 31 -17 25 -10 -19
19 -16 34 4 18 11 -10 14 -10 9 -1 -4 7 -2 12 6 12 7 0 26 11 41 24 27 23 27
25 8 31 -23 7 -27 20 -9 31 7 5 8 3 3 -6 -6 -9 -4 -11 5 -5 10 6 9 11 -5 22
-11 7 -14 13 -7 13 6 0 9 9 7 20 -2 11 0 18 5 15 4 -3 7 11 6 30 -2 20 1 38 6
41 5 3 7 12 4 19 -2 7 2 21 10 32 9 10 13 12 9 6 -3 -7 -2 -13 3 -13 12 0 23
26 15 34 -3 3 -15 1 -27 -5 -14 -7 -11 -2 8 15 17 14 34 22 39 19 6 -3 7 -1 3
6 -4 6 -13 8 -19 4 -24 -15 -42 -11 -19 4 12 9 22 20 22 25 0 7 -5 6 -13 -1
-11 -8 -13 -6 -11 12 1 12 3 24 3 26 1 2 8 -2 16 -9 9 -7 18 -10 22 -6 3 3 1
6 -5 6 -7 0 -12 11 -12 25 0 14 -6 25 -12 25 -9 0 -10 3 -2 8 6 4 10 15 9 24
-2 11 2 15 11 11 8 -3 14 -9 14 -15 0 -5 -4 -7 -9 -3 -11 6 -6 -34 5 -44 4 -3
5 1 1 11 -3 9 -3 19 1 23 4 4 7 17 7 28 0 13 5 21 13 19 8 -1 11 2 7 8 -3 6
-10 8 -14 6 -4 -3 -12 4 -19 14 -8 13 -8 21 -1 26 6 3 8 12 5 20 -3 7 0 16 6
20 7 4 8 3 4 -4 -4 -7 -2 -12 5 -12 7 0 9 -3 6 -7 -4 -3 -2 -12 4 -20 6 -7 8
-13 4 -13 -4 0 -3 -6 3 -13 6 -7 29 -65 50 -128 22 -63 58 -170 82 -239 41
-120 72 -175 84 -147 3 9 7 8 15 -3 10 -13 15 -8 12 12 0 5 5 7 12 5 7 -1 12
7 11 20 -1 12 1 22 5 21 19 -2 24 4 11 13 -12 8 -12 10 -1 7 8 -2 15 -12 17
-21 1 -10 -2 -14 -8 -11 -7 5 -8 2 -3 -6 6 -9 4 -11 -5 -5 -8 5 -11 4 -7 -2 4
-6 -4 -22 -17 -36 -21 -22 -21 -25 -6 -24 10 1 16 5 14 9 -3 4 0 8 6 8 6 0 9
4 6 9 -7 10 18 34 26 25 11 -10 0 56 -11 70 -8 10 -9 16 -1 21 6 3 7 11 4 17
-5 7 -2 8 6 3 10 -6 12 -4 7 8 -4 11 -2 14 9 10 10 -4 12 -9 4 -18 -8 -9 -6
-14 4 -18 9 -4 18 -1 22 5 4 6 3 8 -4 4 -7 -4 -10 2 -9 14 1 12 7 18 14 16 7
-3 15 -1 17 3 3 5 -6 8 -21 7 -14 0 -27 5 -29 12 -1 7 0 8 3 2 2 -5 9 -7 14
-4 6 4 6 11 -1 19 -7 9 -6 16 7 26 16 12 17 12 6 -1 -10 -13 -8 -18 6 -27 14
-9 18 -8 18 3 0 7 -5 10 -10 7 -6 -4 -8 0 -4 10 3 8 -1 21 -9 28 -13 11 -14
15 -2 23 7 6 13 18 13 26 -2 22 5 31 16 24 6 -4 6 -11 -2 -20 -6 -8 -8 -14 -5
-14 4 0 2 -10 -4 -22 -10 -21 -10 -21 8 1 12 15 18 34 15 45 -10 42 -10 61 0
74 5 6 6 12 2 12 -4 0 -2 7 5 15 7 8 16 13 20 10 4 -2 16 5 26 18 19 21 19 21
0 7 -18 -14 -18 -13 -11 10 7 23 7 24 -11 10 -17 -14 -18 -13 -7 1 7 9 9 20 5
24 -4 5 -1 5 7 0 11 -6 12 -2 7 21 -7 27 -6 27 7 10 11 -15 16 -16 22 -6 6 9
4 11 -6 5 -8 -5 -11 -5 -7 0 4 4 3 14 -3 22 -8 9 -8 13 -1 13 6 0 9 8 6 18 -5
13 -4 14 4 3 6 -8 8 -21 4 -29 -3 -9 -1 -13 5 -9 5 3 10 1 11 -6 1 -7 10 -52
21 -102 10 -49 21 -103 24 -120 4 -26 17 -99 31 -170 2 -11 7 -39 11 -63 7
-45 16 -53 60 -56 28 -1 33 -13 10 -22 -8 -4 -15 -11 -15 -16 0 -6 6 -5 15 2
14 12 35 6 35 -10 0 -5 -8 -7 -17 -4 -15 5 -16 4 -3 -5 11 -8 18 -7 26 4 6 8
14 12 17 8 4 -3 7 -1 7 5 0 11 -13 16 -32 13 -15 -2 -8 17 8 23 8 3 12 2 9 -4
-3 -6 -1 -10 4 -10 6 0 11 6 11 13 0 9 3 8 9 -2 6 -9 10 -10 16 -2 4 8 11 9
18 2 9 -7 12 0 12 25 0 19 -3 34 -7 34 -5 0 -8 5 -8 11 0 5 4 8 9 5 13 -9 7
19 -8 38 -11 13 -11 16 0 16 11 0 11 2 -1 10 -8 5 -10 10 -5 10 6 0 3 5 -5 10
-13 9 -13 10 0 10 13 0 13 2 1 9 -8 5 -14 25 -14 45 0 20 -5 36 -10 36 -5 0
-7 11 -5 25 3 14 1 28 -3 31 -17 10 -10 34 9 28 9 -2 7 1 -5 7 -13 7 -23 16
-23 21 0 5 6 6 13 2 9 -6 9 -5 1 7 -20 24 -33 86 -21 98 7 7 5 12 -6 17 -9 3
-17 14 -17 23 0 12 2 13 9 3 7 -11 9 -10 14 3 4 9 3 13 -2 10 -10 -6 -24 11
-27 33 -1 6 3 12 9 12 6 0 3 6 -7 13 -12 9 -16 21 -12 40 3 16 0 27 -6 27 -6
0 -3 10 8 22 19 22 19 22 0 8 -18 -14 -19 -13 -14 8 4 12 2 20 -3 16 -5 -3 -9
0 -9 5 0 6 6 11 13 11 6 0 4 5 -7 11 -15 9 -16 13 -5 20 10 6 11 9 2 9 -7 0
-13 5 -13 11 0 5 4 8 9 4 5 -3 13 -1 16 5 4 6 3 10 -2 9 -28 -5 -35 2 -29 31
3 17 2 30 -3 30 -14 0 -20 52 -10 78 9 23 8 24 -8 11 -10 -7 -15 -10 -12 -6 4
4 -1 38 -10 75 l-17 67 -43 3 c-24 2 -47 0 -52 -5 -4 -4 -33 -91 -64 -193 -31
-102 -72 -234 -91 -295 -19 -60 -37 -117 -39 -125 -13 -48 -23 -73 -24 -62 -2
24 -3 27 -13 39 -5 7 -7 17 -3 23 3 5 2 10 -4 10 -8 0 -23 43 -25 72 -1 3 -4
10 -8 14 -13 12 -9 26 5 19 6 -4 5 -1 -4 7 -18 15 -41 76 -34 88 3 5 0 10 -7
12 -6 2 -12 20 -12 40 -1 20 -3 34 -5 32 -7 -7 -51 117 -45 127 3 5 0 9 -6 9
-7 0 -10 6 -7 14 3 8 3 16 -1 18 -4 2 -18 35 -31 73 -14 39 -29 73 -35 77 -16
11 -84 10 -91 -1z m80 -591 c3 -5 1 -10 -4 -10 -6 0 -11 5 -11 10 0 6 2 10 4
10 3 0 8 -4 11 -10z m450 -70 c3 -6 -1 -7 -9 -4 -18 7 -21 14 -7 14 6 0 13 -4
16 -10z m-525 -393 c0 -2 -9 -12 -19 -21 -14 -13 -21 -14 -27 -5 -4 8 -3 10 5
5 6 -4 14 0 17 8 5 14 24 23 24 13z m-74 -30 c8 3 14 0 14 -7 0 -6 -4 -9 -9
-5 -5 3 -12 1 -16 -5 -10 -16 -25 -1 -18 17 4 10 8 12 10 6 3 -7 11 -9 19 -6z"/>
<path d="M936 2367 c3 -10 9 -15 12 -12 3 3 0 11 -7 18 -10 9 -11 8 -5 -6z"/>
<path d="M990 2079 c0 -5 5 -7 10 -4 6 3 10 8 10 11 0 2 -4 4 -10 4 -5 0 -10
-5 -10 -11z"/>
<path d="M325 2000 c-3 -5 1 -10 10 -10 9 0 13 5 10 10 -3 6 -8 10 -10 10 -2
0 -7 -4 -10 -10z"/>
<path d="M1193 1957 c-13 -5 -24 -15 -24 -21 -1 -6 -2 -269 -3 -585 -1 -661
-8 -613 90 -615 32 -1 64 -5 71 -9 6 -4 14 -4 17 1 6 10 66 9 82 -1 7 -4 11 0
10 10 0 10 4 18 11 18 14 0 30 15 16 15 -5 0 -10 7 -10 15 0 8 4 12 8 9 4 -2
11 0 14 6 4 6 1 9 -6 8 -9 -2 -13 16 -13 64 -1 36 2 64 7 61 4 -2 7 1 7 6 0 6
-4 11 -8 11 -5 0 -9 7 -9 15 0 8 4 12 9 9 4 -3 8 0 8 5 0 6 -4 11 -10 11 -5 0
-10 5 -10 11 0 5 4 8 8 5 5 -3 9 1 9 9 0 8 -3 12 -7 10 -8 -5 -5 39 4 54 3 5
0 11 -6 14 -10 3 -10 7 1 20 7 9 11 23 8 31 -4 10 -1 13 8 9 8 -3 13 -9 10
-13 -3 -5 0 -12 6 -16 8 -5 9 -3 4 6 -6 10 -4 12 8 7 9 -3 19 -1 23 5 4 6 3 8
-4 4 -6 -3 -13 -2 -16 3 -4 5 2 8 11 6 12 -1 17 -10 16 -24 -2 -18 -1 -19 11
-9 7 7 12 18 9 24 -2 7 7 10 24 9 18 -1 27 -7 25 -16 -2 -8 0 -11 4 -7 4 4 14
2 22 -5 13 -10 14 -9 3 12 -8 15 -9 21 -2 17 6 -4 11 -1 11 6 0 9 3 9 10 -2 8
-13 11 -12 25 5 16 20 16 20 7 0 -9 -18 -6 -20 29 -21 33 0 36 1 21 12 -13 9
-19 9 -24 1 -6 -9 -8 -9 -8 0 0 15 15 25 24 16 13 -13 35 -11 29 3 -3 10 0 12
10 8 9 -3 13 -12 10 -20 -3 -8 0 -14 7 -14 6 0 9 4 6 9 -3 5 1 12 10 15 9 3
14 13 11 21 -4 9 -1 12 8 8 8 -3 12 -10 9 -15 -4 -6 3 -5 15 1 17 10 19 16 11
31 -9 16 -8 18 6 13 12 -4 15 -3 10 6 -5 7 -2 10 6 9 7 -2 12 3 11 10 -2 6 2
12 7 12 15 0 12 -17 -6 -35 -9 -9 -13 -19 -9 -23 4 -4 10 -1 12 6 3 7 16 25
29 39 15 17 21 30 15 37 -9 11 19 56 34 56 4 0 1 -7 -6 -17 -13 -15 -12 -15 8
-3 19 12 20 15 6 25 -12 9 -13 14 -4 19 6 4 8 13 5 19 -5 8 -3 8 7 0 20 -20
33 -15 13 5 -17 16 -17 17 1 21 14 2 15 5 5 11 -10 6 -11 12 -3 22 6 7 9 22 7
32 -1 11 0 25 4 30 6 10 5 108 -1 146 -15 87 -91 198 -158 231 -61 30 -103 47
-134 53 -16 4 -41 9 -55 13 -43 11 -443 11 -467 0z m290 -267 c4 0 5 6 1 13
-6 9 -5 9 7 0 9 -7 20 -8 29 -3 8 5 19 6 25 2 12 -8 31 -13 65 -17 14 -1 29
-3 34 -4 4 0 6 -7 3 -15 -4 -9 0 -13 11 -11 27 4 53 -32 56 -78 8 -101 -53
-148 -195 -153 -66 -2 -75 3 -56 33 4 6 1 13 -5 16 -10 3 -10 7 1 20 9 11 10
17 2 17 -6 0 -11 5 -11 11 0 5 5 7 11 3 8 -4 8 -1 2 12 -11 22 -11 99 0 110
12 12 8 26 -5 18 -10 -6 -10 -5 -1 7 8 10 9 19 3 27 -7 9 -7 9 2 2 7 -5 16
-10 21 -10z m447 -404 c0 -3 -4 -8 -10 -11 -5 -3 -10 -1 -10 4 0 6 5 11 10 11
6 0 10 -2 10 -4z m-85 -85 c-6 -5 -25 10 -25 20 0 5 6 4 14 -3 8 -7 12 -15 11
-17z m-52 -5 c4 -10 1 -13 -8 -9 -8 3 -12 9 -9 14 7 12 11 11 17 -5z"/>
<path d="M1523 1693 c-23 -8 -14 -18 17 -19 17 -1 30 3 30 9 0 6 -3 7 -7 4 -3
-4 -11 -3 -17 2 -6 4 -17 6 -23 4z"/>
<path d="M1483 1682 c-9 -5 -6 -12 10 -21 19 -13 21 -12 10 1 -7 8 -10 18 -6
21 9 9 1 8 -14 -1z"/>
<path d="M1615 1670 c-3 -5 -1 -10 4 -10 6 0 11 5 11 10 0 6 -2 10 -4 10 -3 0
-8 -4 -11 -10z"/>
<path d="M1576 1662 c-3 -5 1 -9 9 -9 8 0 12 4 9 9 -3 4 -7 8 -9 8 -2 0 -6 -4
-9 -8z"/>
<path d="M1470 1599 c0 -5 5 -7 10 -4 6 3 10 8 10 11 0 2 -4 4 -10 4 -5 0 -10
-5 -10 -11z"/>
<path d="M795 1941 c-6 -11 13 -26 22 -17 4 3 1 6 -6 6 -7 0 -9 5 -6 10 3 6 4
10 1 10 -3 0 -7 -4 -11 -9z"/>
<path d="M355 1931 c-3 -5 -2 -12 3 -15 5 -3 9 1 9 9 0 17 -3 19 -12 6z"/>
<path d="M1035 1929 c-4 -6 -5 -12 -2 -15 2 -3 7 2 10 11 7 17 1 20 -8 4z"/>
<path d="M759 1863 c-1 -2 -3 -7 -4 -13 -1 -5 -3 -11 -4 -12 -2 -2 -4 -13 -7
-25 -4 -25 11 -40 22 -22 4 8 3 9 -4 5 -7 -4 -12 -2 -12 3 0 10 13 15 31 13 3
-1 6 6 6 14 0 10 -4 11 -11 4 -5 -5 -15 -10 -20 -10 -6 1 0 9 13 20 12 11 28
17 35 13 6 -3 8 -2 3 2 -7 9 -46 15 -48 8z"/>
<path d="M735 1699 c-4 -6 -5 -12 -2 -15 2 -3 7 2 10 11 7 17 1 20 -8 4z"/>
<path d="M276 1688 c3 -4 11 -5 19 -1 21 7 19 12 -4 10 -11 0 -18 -5 -15 -9z"/>
<path d="M269 1668 c-7 -23 -3 -45 8 -41 9 4 10 9 3 18 -5 6 -7 15 -3 18 3 4
3 7 0 7 -4 0 -7 -1 -8 -2z"/>
<path d="M290 1660 c0 -5 5 -10 11 -10 5 0 7 5 4 10 -3 6 -8 10 -11 10 -2 0
-4 -4 -4 -10z"/>
<path d="M265 1594 c-9 -15 -12 -23 -6 -20 11 7 35 46 28 46 -3 0 -12 -12 -22
-26z"/>
<path d="M656 1572 c-3 -6 1 -15 8 -21 8 -7 17 -8 20 -3 3 6 -1 15 -8 21 -8 7
-17 8 -20 3z"/>
<path d="M260 1560 c-12 -7 -10 -9 8 -7 12 0 22 5 22 9 0 11 -12 10 -30 -2z"/>
<path d="M266 1523 c-6 -14 -5 -15 5 -6 7 7 10 15 7 18 -3 3 -9 -2 -12 -12z"/>
<path d="M1110 1503 c0 -6 8 -17 18 -24 16 -13 16 -13 2 6 -8 11 -16 22 -17
24 -2 2 -3 0 -3 -6z"/>
<path d="M1057 1443 c4 -9 9 -11 16 -4 5 5 17 7 26 4 9 -4 13 -3 9 2 -4 4 -18
9 -32 10 -18 2 -23 -1 -19 -12z"/>
<path d="M230 1440 c0 -5 5 -10 11 -10 5 0 7 5 4 10 -3 6 -8 10 -11 10 -2 0
-4 -4 -4 -10z"/>
<path d="M130 1420 c0 -5 5 -10 11 -10 5 0 7 5 4 10 -3 6 -8 10 -11 10 -2 0
-4 -4 -4 -10z"/>
<path d="M1975 1319 c-4 -6 -5 -12 -2 -15 2 -3 7 2 10 11 7 17 1 20 -8 4z"/>
<path d="M1934 1309 c-4 -7 -3 -9 4 -5 5 3 13 0 15 -6 4 -9 6 -10 6 -1 1 17
-16 25 -25 12z"/>
<path d="M1920 1240 c-9 -6 -10 -10 -3 -10 6 0 15 5 18 10 8 12 4 12 -15 0z"/>
<path d="M1570 1139 c0 -15 18 -19 23 -6 3 8 -1 14 -9 14 -8 0 -14 -4 -14 -8z"/>
<path d="M1678 1123 c8 -3 12 -30 12 -83 0 -87 5 -110 26 -110 8 0 14 -6 14
-12 0 -9 2 -10 8 -2 9 15 64 12 69 -3 3 -7 -5 -11 -16 -10 -11 0 -17 5 -15 9
3 4 -2 5 -11 2 -14 -6 -14 -8 2 -19 9 -7 23 -10 31 -7 8 3 18 -1 23 -9 7 -11
9 -11 9 -1 0 17 31 11 48 -8 11 -13 11 -11 2 8 -7 15 -8 22 0 22 6 0 13 -7 16
-15 3 -8 16 -14 29 -13 13 1 21 6 18 11 -7 12 40 4 50 -8 5 -6 7 -5 5 3 -2 8
-7 13 -12 12 -10 -2 -26 20 -26 35 0 6 5 3 10 -5 8 -12 11 -13 19 -1 6 9 11
10 15 2 4 -6 2 -11 -4 -11 -6 0 -8 -5 -5 -10 4 -6 11 -7 17 -4 6 4 8 -1 3 -16
-4 -12 -3 -20 2 -17 5 3 8 -169 8 -395 0 -295 3 -402 11 -409 7 -6 35 -11 62
-12 28 -1 50 -4 50 -7 -1 -20 4 -21 18 -4 14 18 15 18 4 -4 -9 -19 -14 -21
-26 -11 -11 9 -14 8 -14 -2 0 -10 13 -14 44 -14 24 0 42 3 40 7 -2 3 -1 14 2
23 5 13 9 14 15 4 12 -20 21 -4 25 43 2 24 6 53 8 65 3 13 0 23 -6 23 -6 0 -8
3 -4 8 4 4 12 7 18 7 6 0 12 8 14 18 1 9 -2 15 -7 11 -5 -3 -6 -11 -3 -17 5
-9 4 -9 -5 -1 -15 14 -22 52 -11 59 5 3 13 -3 19 -12 9 -16 10 -16 8 4 0 12
-4 20 -8 17 -4 -2 -13 4 -20 13 -12 15 -12 16 4 10 11 -4 16 -3 12 3 -3 6 -3
16 2 22 10 17 13 38 5 37 -20 -3 -32 2 -27 11 4 6 10 8 14 6 3 -3 7 4 7 14 0
10 -5 16 -12 13 -11 -4 -12 12 -1 69 3 16 1 28 -4 28 -6 0 -7 5 -4 10 4 6 10
8 15 5 5 -3 12 0 16 6 4 8 3 9 -4 5 -15 -9 -31 25 -22 49 7 19 7 19 18 0 10
-19 11 -19 9 2 0 12 -5 19 -9 17 -4 -3 -8 2 -8 10 0 9 -5 16 -11 16 -5 0 -7 5
-4 10 5 8 11 8 19 1 9 -8 13 -7 13 4 0 8 -4 12 -9 9 -4 -3 -8 0 -8 6 0 6 -4 8
-10 5 -6 -3 -7 1 -4 9 3 9 11 13 18 9 7 -4 7 -2 -1 7 -9 10 -9 20 3 44 12 24
12 27 1 14 -19 -24 -24 -23 -21 5 1 12 3 28 3 35 1 8 6 10 14 6 9 -6 9 -5 0 8
-7 8 -10 18 -6 21 3 4 1 7 -6 7 -7 0 -9 5 -6 10 4 6 10 8 15 5 5 -3 11 -1 15
5 4 6 11 7 17 4 7 -4 8 -2 4 5 -5 8 -12 9 -20 2 -7 -6 -17 -6 -26 -1 -13 8
-12 10 2 10 9 0 22 8 27 18 6 9 11 13 11 9 0 -4 9 -3 20 3 15 8 20 8 20 -2 0
-9 3 -9 10 2 9 13 11 13 19 0 5 -8 7 -18 4 -24 -3 -5 -1 -6 5 -2 6 4 9 13 6
20 -7 19 37 15 54 -4 11 -13 11 -11 2 8 -13 27 0 29 23 2 9 -11 22 -20 29 -20
9 0 8 3 -2 10 -8 5 -12 10 -7 11 26 5 34 4 47 -8 13 -10 16 -9 17 9 1 12 -3
29 -10 37 -10 12 -9 12 10 1 12 -8 20 -21 18 -32 -2 -10 0 -16 6 -13 5 4 6 11
3 17 -5 8 -1 9 12 4 15 -6 17 -5 7 5 -16 16 -17 33 -3 24 7 -5 10 27 8 97 l-3
103 -465 2 c-256 0 -459 -1 -452 -4z m185 -215 c-11 -17 -43 -20 -36 -2 2 7
11 10 19 7 8 -3 14 1 14 8 0 7 3 10 6 6 3 -3 2 -11 -3 -19z m42 12 c-3 -5 1
-10 9 -10 9 0 16 6 16 13 0 8 3 7 10 -3 6 -10 5 -20 -6 -30 -14 -13 -17 -13
-29 4 -13 17 -12 36 1 36 3 0 2 -4 -1 -10z m425 -21 c0 -4 -7 -9 -14 -12 -11
-4 -13 -1 -9 11 5 14 4 15 -8 6 -20 -16 -48 -14 -42 4 4 10 8 11 13 2 4 -7 13
-9 19 -6 6 4 9 12 5 17 -3 6 3 5 15 -3 12 -7 21 -16 21 -19z m27 24 c-4 -3 0
-11 9 -17 13 -10 13 -12 -4 -12 -12 0 -18 6 -17 16 5 21 4 20 12 20 3 0 3 -3
0 -7z m68 -15 c-3 -8 -12 -15 -20 -15 -8 0 -12 4 -9 8 2 4 -2 10 -8 13 -7 3
-3 3 10 0 14 -3 22 -1 22 7 0 7 2 10 5 7 3 -3 3 -12 0 -20z m39 10 c-5 -7 -2
-9 8 -5 9 3 21 0 28 -6 10 -10 12 -8 7 6 -9 24 10 12 25 -16 9 -18 9 -20 -3
-11 -16 12 -29 12 -46 1 -13 -8 -37 26 -26 37 10 10 15 7 7 -6z m-184 -593 c0
-1 -6 -7 -13 -13 -10 -8 -13 -6 -13 7 0 11 6 17 13 14 7 -3 13 -6 13 -8z m-89
-308 c-10 -9 -11 -8 -5 6 3 10 9 15 12 12 3 -3 0 -11 -7 -18z"/>
<path d="M1920 900 c-9 -6 -10 -10 -3 -10 6 0 15 5 18 10 8 12 4 12 -15 0z"/>
<path d="M1466 1112 c-3 -5 1 -9 9 -9 8 0 12 4 9 9 -3 4 -7 8 -9 8 -2 0 -6 -4
-9 -8z"/>
<path d="M1795 869 c-4 -6 -5 -12 -2 -15 2 -3 7 2 10 11 7 17 1 20 -8 4z"/>
<path d="M1290 718 c0 -6 7 -7 16 -4 11 4 15 2 11 -7 -3 -8 1 -14 9 -14 9 0
10 5 5 15 -10 18 -41 25 -41 10z"/>
<path d="M1345 722 c-6 -6 4 -22 15 -22 4 0 10 6 13 13 5 13 -17 20 -28 9z"/>
<path d="M1387 711 c-4 -17 -3 -21 5 -13 5 5 8 16 6 23 -3 8 -7 3 -11 -10z"/>
<path d="M1413 711 c0 -11 5 -18 9 -15 4 3 5 11 1 19 -7 21 -12 19 -10 -4z"/>
<path d="M2267 539 c7 -7 15 -10 18 -7 3 3 -2 9 -12 12 -14 6 -15 5 -6 -5z"/>
<path d="M2276 447 c3 -10 9 -15 12 -12 3 3 0 11 -7 18 -10 9 -11 8 -5 -6z"/>
<path d="M2267 419 c7 -7 15 -10 18 -7 3 3 -2 9 -12 12 -14 6 -15 5 -6 -5z"/>
<path d="M2276 127 c3 -10 9 -15 12 -12 3 3 0 11 -7 18 -10 9 -11 8 -5 -6z"/>
<path d="M2267 99 c7 -7 15 -10 18 -7 3 3 -2 9 -12 12 -14 6 -15 5 -6 -5z"/>
<path d="M2263 45 c0 -8 4 -15 9 -15 4 0 8 4 8 9 0 6 -4 12 -8 15 -5 3 -9 -1
-9 -9z"/>
<path d="M2094 28 c-4 -5 -3 -12 0 -15 3 -4 6 0 6 8 0 11 2 12 9 1 7 -11 9
-11 14 0 6 16 -20 21 -29 6z"/>
<path d="M2229 18 c11 -15 41 -15 41 -1 0 3 -6 3 -14 0 -7 -3 -20 0 -27 6 -11
10 -11 9 0 -5z"/>
</g>
</svg>
