<?xml version="1.0" standalone="no"?>
<!DOCTYPE svg PUBLIC "-//W3C//DTD SVG 20010904//EN"
 "http://www.w3.org/TR/2001/REC-SVG-20010904/DTD/svg10.dtd">
<svg version="1.0" xmlns="http://www.w3.org/2000/svg"
 width="260.000000pt" height="260.000000pt" viewBox="0 0 260.000000 260.000000"
 preserveAspectRatio="xMidYMid meet">
<metadata>
Created by potrace 1.11, written by Peter Selinger 2001-2013
</metadata>
<g transform="translate(0.000000,260.000000) scale(0.100000,-0.100000)"
fill="#000000" stroke="none">
<path d="M245 2549 c-4 -6 -52 -244 -105 -528 -67 -356 -94 -520 -88 -528 6
-7 25 -13 43 -13 18 0 38 -7 45 -15 19 -23 67 -19 84 8 7 12 35 137 60 277 26
140 51 259 55 263 8 8 25 -35 140 -368 l59 -170 48 0 49 0 88 263 c49 144 92
262 97 262 4 0 22 -78 40 -172 71 -381 61 -343 97 -346 17 -2 37 -10 43 -18
18 -21 64 -17 86 7 19 21 18 27 -71 462 -49 243 -98 483 -110 532 l-21 90 -49
0 -50 0 -76 -250 c-43 -137 -89 -290 -104 -338 -15 -49 -30 -86 -33 -82 -4 3
-57 156 -118 338 l-111 332 -45 3 c-28 2 -49 -2 -53 -9z"/>
<path d="M2060 2227 l0 -315 -24 -15 c-20 -14 -25 -27 -31 -89 -4 -40 -12 -79
-18 -86 -6 -8 -14 -48 -18 -90 -10 -111 -29 -213 -45 -244 -8 -14 -14 -53 -14
-86 0 -34 -4 -64 -10 -67 -5 -3 -10 -46 -10 -96 0 -79 -2 -89 -18 -89 -40 0
-42 -15 -42 -271 l0 -248 -27 -3 c-32 -4 -44 -28 -14 -28 21 0 21 -3 21 -250
0 -160 4 -250 10 -250 6 0 10 67 10 180 l0 180 43 0 42 0 -3 70 -4 70 172 0
172 0 -4 -70 -3 -70 48 0 47 0 0 -180 0 -180 25 0 25 0 0 118 c0 67 -6 142
-15 177 -17 69 -20 205 -5 205 6 0 10 7 10 15 0 8 -9 15 -20 15 -19 0 -20 7
-21 173 0 218 -11 327 -33 339 -9 5 -16 17 -16 26 0 9 -6 37 -14 62 -44 136
-70 248 -91 390 -7 52 -18 118 -25 145 -6 28 -15 86 -21 130 -8 56 -17 84 -30
96 -17 15 -19 37 -21 329 -2 240 -6 314 -15 318 -10 3 -13 -64 -13 -311z m36
-374 c9 -20 18 -52 21 -70 l6 -33 -53 0 -53 0 6 33 c7 47 34 107 47 107 6 0
18 -17 26 -37z m20 -132 c-4 -5 -1 -11 5 -13 7 -2 14 -29 17 -59 l4 -54 -77 0
-77 0 4 51 c6 67 21 83 81 84 27 0 46 -4 43 -9z m1 -163 c26 -29 53 -85 53
-110 0 -15 -3 -17 -19 -8 -25 13 -147 13 -172 0 -16 -9 -19 -7 -19 8 0 25 27
81 53 110 13 14 32 22 52 22 20 0 39 -8 52 -22z m39 -150 c36 -25 44 -43 44
-103 -1 -35 -2 -38 -14 -23 -40 53 -175 51 -233 -4 l-23 -21 0 52 c0 47 4 57
34 87 31 31 39 34 97 34 49 0 70 -5 95 -22z m-28 -125 c46 -28 73 -56 94 -96
20 -41 20 -58 -2 -32 -10 12 -37 15 -135 15 l-124 0 -25 -32 c-26 -33 -26 -33
-26 -8 0 42 42 113 85 142 46 32 94 36 133 11z m87 -158 c23 -23 25 -30 23
-122 -1 -54 -3 -82 -5 -62 -3 23 -16 50 -34 70 -30 34 -31 34 -118 34 -86 0
-88 0 -122 -34 l-34 -34 -6 -226 -5 -226 -2 277 -2 276 33 35 32 35 108 1
c102 1 109 0 132 -24z m-325 -345 c0 -243 -1 -250 -20 -250 -19 0 -20 7 -20
243 0 134 3 247 7 250 3 4 12 7 20 7 10 0 13 -48 13 -250z m285 219 l35 -31 0
-219 0 -219 -136 0 -136 0 4 216 3 216 37 34 c34 31 43 34 98 34 52 0 64 -4
95 -31z m135 -234 c0 -202 -2 -235 -15 -235 -13 0 -15 24 -15 153 0 130 16
317 27 317 1 0 3 -106 3 -235z m-420 -325 l0 -60 -30 0 -30 0 0 60 0 60 30 0
30 0 0 -60z m450 -1 l0 -60 -32 3 c-33 3 -33 4 -36 61 l-3 57 36 0 35 0 0 -61z"/>
<path d="M297 1103 c-12 -11 -8 -1103 3 -1103 6 0 10 37 10 90 l0 90 285 0
285 0 0 -90 c0 -73 3 -90 15 -90 13 0 15 58 14 463 -1 254 -4 503 -8 552 l-6
90 -296 3 c-162 1 -298 -1 -302 -5z m583 -62 l0 -40 -267 1 c-148 0 -276 2
-285 5 -13 3 -18 14 -18 39 l0 34 285 0 285 0 0 -39z m0 -90 l0 -40 -267 1
c-148 0 -276 2 -285 5 -13 3 -18 14 -18 39 l0 34 285 0 285 0 0 -39z m0 -90
l0 -40 -267 1 c-148 0 -276 2 -285 5 -13 3 -18 14 -18 39 l0 34 285 0 285 0 0
-39z m0 -90 l0 -40 -267 1 c-148 0 -276 2 -285 5 -13 3 -18 14 -18 39 l0 34
285 0 285 0 0 -39z m0 -90 l0 -40 -267 1 c-148 0 -276 2 -285 5 -13 3 -18 14
-18 39 l0 34 285 0 285 0 0 -39z m0 -90 l0 -40 -267 1 c-148 0 -276 2 -285 5
-13 3 -18 14 -18 39 l0 34 285 0 285 0 0 -39z m0 -90 l0 -39 -267 0 c-148 0
-276 2 -285 5 -13 3 -18 14 -18 39 l0 34 285 0 285 0 0 -39z m0 -90 l0 -40
-267 1 c-148 0 -276 2 -285 5 -13 3 -18 14 -18 39 l0 34 285 0 285 0 0 -39z
m0 -90 l0 -40 -267 1 c-148 0 -276 2 -285 5 -13 3 -18 14 -18 39 l0 34 285 0
285 0 0 -39z m0 -90 l0 -40 -267 1 c-148 0 -276 2 -285 5 -13 3 -18 14 -18 39
l0 34 285 0 285 0 0 -39z"/>
<path d="M1167 784 c-11 -12 -8 -784 3 -784 6 0 10 9 10 20 0 19 7 20 190 20
183 0 190 -1 190 -20 0 -11 7 -20 15 -20 13 0 15 40 14 303 -1 166 -4 343 -8
392 l-6 90 -201 3 c-110 1 -203 -1 -207 -4z m393 -58 c0 -33 -1 -34 -47 -40
-39 -4 -298 -2 -325 3 -5 0 -8 17 -8 36 l0 35 190 0 190 0 0 -34z m0 -93 l0
-38 -178 1 c-97 1 -183 2 -189 3 -8 0 -13 15 -13 36 l0 35 190 0 190 0 0 -37z
m0 -91 l0 -38 -167 -1 c-213 -2 -213 -2 -213 42 l0 35 190 0 190 0 0 -38z m0
-92 l0 -40 -137 4 c-76 3 -162 5 -190 6 l-53 0 0 35 0 35 190 0 190 0 0 -40z
m0 -89 l0 -38 -137 2 c-76 1 -162 3 -190 4 l-53 1 0 35 0 35 190 0 190 0 0
-39z m0 -92 l0 -41 -100 4 c-55 1 -100 0 -100 -4 0 -5 45 -8 100 -8 l100 0 0
-35 0 -35 -52 -2 c-130 -5 -168 -5 -245 0 l-83 5 0 33 0 34 83 1 c90 1 66 16
-30 18 l-53 1 0 34 c0 19 4 36 10 38 5 2 91 2 190 0 l180 -3 0 -40z m0 -173
l0 -34 -57 -6 c-45 -4 -272 -2 -315 3 -5 1 -8 17 -8 36 l0 35 190 0 190 0 0
-34z"/>
</g>
</svg>
