<?xml version="1.0" standalone="no"?>
<!DOCTYPE svg PUBLIC "-//W3C//DTD SVG 20010904//EN"
 "http://www.w3.org/TR/2001/REC-SVG-20010904/DTD/svg10.dtd">
<svg version="1.0" xmlns="http://www.w3.org/2000/svg"
 width="260.000000pt" height="260.000000pt" viewBox="0 0 260.000000 260.000000"
 preserveAspectRatio="xMidYMid meet">
<metadata>
Created by potrace 1.11, written by Peter Selinger 2001-2013
</metadata>
<g transform="translate(0.000000,260.000000) scale(0.100000,-0.100000)"
fill="#000000" stroke="none">
<path d="M245 2551 c-5 -9 -45 -206 -61 -296 -2 -16 -7 -37 -9 -45 -2 -8 -6
-31 -9 -50 -5 -30 -56 -302 -70 -365 -2 -11 -7 -40 -11 -65 -4 -25 -9 -54 -11
-65 -7 -40 -25 -131 -29 -152 -4 -16 1 -23 23 -30 15 -5 38 -8 52 -7 14 1 34
-6 44 -15 18 -15 19 -15 13 2 -4 11 -3 16 4 12 6 -4 8 -13 5 -21 -3 -7 0 -16
6 -20 7 -5 8 -2 3 6 -6 10 -4 12 9 7 13 -5 15 -3 7 12 -7 13 -6 18 4 18 8 0
12 -3 10 -7 -2 -3 5 -6 15 -6 14 0 16 4 9 12 -7 9 -5 16 8 23 23 14 8 14 -18
1 -10 -6 -19 -7 -19 -2 0 4 10 13 23 18 12 6 17 9 10 7 -7 -1 -15 2 -18 7 -4
6 2 10 12 10 17 1 17 2 -1 15 -12 9 -15 15 -7 15 8 0 11 6 7 16 -3 8 -2 13 3
10 5 -3 8 12 6 33 -2 38 -1 39 21 31 16 -6 25 -5 30 3 4 7 4 9 -1 5 -4 -4 -16
-3 -25 2 -15 8 -19 26 -10 50 1 3 2 9 1 13 -1 5 3 6 9 2 6 -3 8 -11 5 -16 -4
-5 -2 -9 3 -9 6 0 13 7 16 16 3 8 2 13 -2 11 -4 -3 -13 1 -20 9 -10 11 -10 14
0 14 11 0 11 2 0 9 -10 6 -10 10 3 21 11 9 12 16 5 25 -8 10 -8 15 1 21 8 4 9
3 5 -4 -4 -7 -2 -12 3 -12 6 0 11 9 11 21 0 11 -4 18 -8 15 -5 -3 -9 1 -9 9 0
8 5 12 10 8 5 -3 7 10 4 30 -4 28 -2 34 10 30 9 -4 11 -8 4 -12 -6 -4 -2 -12
10 -20 17 -10 20 -10 13 1 -10 15 -11 19 -13 54 0 14 -5 23 -10 20 -8 -5 -8
22 -1 32 2 1 3 6 4 11 0 5 4 12 9 15 4 3 5 3 2 -1 -3 -3 2 -15 12 -25 9 -10
13 -18 8 -18 -4 0 -3 -6 2 -12 8 -11 30 -69 59 -158 3 -8 6 -17 7 -20 1 -3 27
-77 58 -165 54 -155 57 -160 87 -166 21 -4 35 -2 43 7 6 8 22 12 34 10 20 -4
22 -1 18 27 -9 62 -5 98 12 117 11 13 14 20 6 20 -7 0 -9 5 -5 11 4 8 9 7 15
-2 4 -7 6 -16 3 -20 -6 -10 24 -5 33 6 4 4 2 5 -4 1 -15 -8 -18 10 -3 19 13 8
13 25 -1 25 -5 0 -8 -4 -4 -9 3 -5 1 -12 -5 -16 -5 -3 -10 3 -10 14 0 19 10
26 32 22 4 0 4 7 1 17 -6 15 -5 16 13 2 17 -13 18 -13 7 0 -7 9 -8 21 -3 29 4
8 6 20 3 28 -4 9 0 11 13 7 17 -6 17 -5 -1 9 -11 9 -17 17 -12 18 4 1 12 3 17
4 6 1 12 3 15 4 3 0 1 11 -6 23 -10 18 -9 20 5 15 8 -3 18 -1 22 5 4 6 3 8 -2
5 -6 -3 -16 -2 -24 3 -16 10 -22 40 -8 40 6 0 8 -6 5 -13 -3 -8 0 -14 7 -14 6
0 12 8 12 18 0 10 -3 16 -7 13 -4 -2 -12 2 -18 10 -9 11 -6 12 16 8 27 -5 27
-5 10 13 -15 14 -16 20 -5 26 7 5 9 9 4 9 -5 0 -3 7 4 15 10 12 10 15 0 15 -8
0 -11 2 -8 5 10 10 37 -7 37 -23 0 -9 1 -24 4 -32 4 -14 15 -66 21 -100 2 -8
6 -33 10 -55 4 -22 14 -71 21 -110 8 -38 17 -86 20 -105 19 -115 16 -109 68
-114 19 -2 44 -10 56 -18 13 -9 30 -15 39 -13 9 1 20 -2 23 -7 4 -6 9 -6 13 1
4 6 1 11 -6 11 -9 0 -9 3 2 10 9 6 10 10 3 10 -6 0 -14 -4 -18 -10 -7 -11 -35
-2 -35 12 0 7 5 6 14 -1 11 -9 15 -8 20 4 3 9 10 14 15 11 5 -3 12 1 15 10 4
10 2 13 -6 8 -8 -5 -9 -2 -5 9 3 10 2 17 -3 17 -6 0 -10 5 -10 11 0 5 6 7 13
3 8 -5 8 -2 -2 9 -7 9 -10 17 -6 17 4 0 1 8 -6 17 -12 15 -12 16 6 9 18 -7 18
-5 -2 14 -24 21 -31 36 -13 25 5 -3 10 -2 10 4 0 5 -5 11 -11 13 -5 2 -12 17
-13 33 -2 17 -7 38 -11 47 -4 10 -5 25 -2 33 4 8 2 17 -3 20 -6 4 -10 11 -10
17 0 6 7 5 18 -3 9 -7 6 -1 -7 14 -24 27 -24 27 -5 42 13 11 14 13 3 9 -20 -6
-32 29 -16 45 7 7 5 12 -7 17 -13 5 -14 9 -5 20 9 11 8 15 -5 20 -9 3 -16 14
-16 23 0 12 2 13 9 3 7 -11 9 -10 14 3 4 9 3 13 -2 10 -10 -6 -24 11 -27 33
-1 6 3 12 9 12 7 0 6 4 -2 9 -8 5 -15 18 -16 28 0 10 -4 24 -9 31 -4 6 -2 12
3 12 6 0 11 5 11 11 0 5 -4 8 -9 5 -8 -5 -15 21 -24 91 -1 12 -6 25 -10 29
-12 12 -8 26 6 18 9 -6 9 -5 0 8 -7 8 -10 18 -6 21 3 4 2 7 -4 7 -6 0 -9 11
-8 25 2 14 -2 25 -8 25 -5 0 -8 2 -5 5 2 3 -5 44 -17 92 l-21 88 -43 3 c-24 2
-47 0 -52 -5 -4 -4 -33 -91 -64 -193 -31 -102 -72 -234 -91 -295 -19 -60 -37
-117 -39 -125 -13 -48 -23 -73 -24 -62 -2 24 -3 27 -13 39 -5 7 -7 17 -3 23 3
5 1 10 -4 10 -6 0 -11 7 -11 16 0 9 5 12 12 8 7 -4 8 -3 4 5 -4 6 -12 9 -17 6
-8 -5 -13 19 -6 28 1 2 -4 11 -12 20 -11 14 -11 17 0 17 11 0 11 2 -1 10 -8 5
-15 13 -16 17 0 4 -6 21 -12 36 -7 16 -10 32 -7 37 3 5 0 10 -7 12 -6 2 -12
20 -12 40 -1 20 -4 34 -7 33 -3 -2 -29 67 -59 153 -29 86 -58 160 -64 164 -16
11 -84 10 -91 -1z m522 -687 c-3 -4 -2 -16 4 -27 7 -13 7 -17 1 -13 -14 8 -26
-12 -28 -45 -1 -15 -8 -36 -16 -48 -14 -19 -16 -20 -22 -5 -4 9 -4 19 -1 22 3
3 5 0 5 -7 0 -7 5 -9 10 -6 8 5 7 11 -1 21 -10 12 -9 13 7 7 17 -6 17 -5 5 10
-8 10 -9 17 -3 17 6 0 9 9 7 20 -2 12 0 18 6 14 6 -3 10 0 8 7 -3 26 1 39 13
39 6 0 8 -3 5 -6z m-111 -349 c1 -8 -3 -18 -8 -22 -6 -3 -8 -1 -4 5 3 6 2 13
-4 17 -6 4 -8 11 -4 16 7 12 17 4 20 -16z"/>
<path d="M2204 2418 c-3 -5 -10 -6 -15 -3 -5 4 -9 1 -9 -5 0 -6 -5 -8 -10 -5
-6 3 -22 -3 -38 -13 -15 -11 -29 -20 -32 -20 -11 -1 -45 -16 -50 -21 -3 -4
-23 -19 -45 -35 -40 -30 -195 -183 -247 -245 -28 -33 -101 -161 -92 -161 3 0
-1 -10 -8 -22 -7 -13 -13 -31 -14 -40 -1 -10 -2 -19 -4 -20 -1 -2 -4 -19 -6
-38 -3 -19 -8 -42 -11 -50 -4 -8 -7 -34 -8 -58 -1 -36 -9 -54 -50 -105 -28
-33 -72 -81 -100 -106 -70 -65 -286 -273 -371 -357 -65 -66 -171 -144 -194
-144 -5 0 -25 -9 -45 -20 -19 -11 -35 -17 -35 -14 0 4 -6 2 -13 -3 -6 -6 -36
-16 -64 -24 -29 -7 -51 -15 -48 -17 3 -3 -21 -18 -52 -34 -32 -16 -65 -36 -75
-45 -10 -9 -18 -13 -18 -9 0 4 -6 1 -14 -6 -7 -7 -24 -20 -36 -28 -13 -8 -32
-23 -42 -33 -10 -9 -23 -17 -29 -17 -5 0 -7 -4 -4 -10 3 -5 2 -10 -3 -10 -21
0 -162 -114 -265 -214 -65 -64 -133 -161 -127 -182 1 -4 -4 -10 -10 -14 -9 -6
-10 -19 -5 -46 5 -22 8 -42 7 -46 -1 -5 5 -8 14 -8 9 0 12 -5 8 -12 -5 -7 -2
-9 9 -5 11 4 14 2 10 -9 -4 -10 5 -19 26 -27 17 -6 31 -15 31 -20 0 -4 -4 -6
-8 -3 -5 3 -9 -1 -9 -9 0 -8 4 -12 8 -9 4 2 13 -4 19 -13 8 -13 10 -14 7 -2
-3 9 4 21 16 29 20 12 21 11 9 -2 -11 -13 -9 -15 13 -15 13 0 22 4 19 9 -4 6
5 3 18 -6 14 -9 27 -13 31 -10 3 3 4 -5 3 -19 -4 -30 19 -65 27 -43 3 8 3 17
-1 20 -10 11 -11 37 -1 30 5 -3 7 -10 4 -15 -4 -5 0 -9 8 -9 9 0 14 8 12 17
-1 10 0 13 2 7 2 -6 18 -10 36 -8 21 3 27 1 18 -5 -7 -5 -18 -15 -23 -22 -8
-11 -9 -10 -4 4 3 9 2 17 -3 17 -5 0 -15 -8 -22 -17 -7 -10 -9 -15 -5 -11 5 4
16 2 24 -5 8 -6 25 -12 38 -12 18 -1 21 3 14 15 -11 21 0 36 28 37 35 1 35 2
21 21 -13 16 -13 16 7 -1 23 -19 39 -23 29 -7 -3 6 -1 10 5 10 6 0 8 -11 6
-26 -4 -20 -2 -23 8 -15 7 6 16 7 20 3 4 -4 6 -2 4 3 -1 6 2 11 7 13 6 1 10
-2 10 -7 0 -25 10 -15 12 11 0 21 -2 26 -8 17 -7 -11 -9 -11 -9 -1 0 7 7 15
15 18 8 4 12 10 9 15 -3 5 0 9 6 9 6 0 8 -11 6 -26 -4 -20 -2 -23 8 -15 7 6
16 7 21 3 4 -4 3 3 -4 15 -9 18 -8 24 11 37 12 8 25 13 30 10 4 -3 12 6 17 19
5 13 17 32 26 41 16 16 19 16 38 -1 l21 -18 -18 30 c-19 29 -19 30 0 14 31
-26 51 -34 26 -10 -17 17 -20 26 -12 40 5 10 6 22 2 26 -4 5 -1 5 6 1 7 -4 10
-10 8 -14 -2 -4 2 -12 9 -19 11 -10 14 -10 18 0 3 9 8 8 22 -3 18 -15 18 -14
1 13 -16 24 -36 41 -21 18 3 -5 0 -13 -7 -17 -7 -4 -10 -4 -6 1 4 4 2 15 -5
23 -8 11 -8 14 0 9 6 -4 14 -1 16 5 4 10 6 10 6 1 1 -7 8 -10 18 -6 12 5 14 3
8 -8 -8 -12 -6 -12 8 0 9 7 14 17 11 22 -4 8 7 13 26 11 3 0 7 9 7 20 2 20 1
20 -12 2 -13 -17 -15 -15 -15 11 0 3 3 5 8 6 4 0 13 6 20 12 7 6 12 6 11 1 -1
-5 -1 -16 0 -24 1 -13 2 -13 11 0 12 20 -8 42 -31 35 -11 -4 -19 -2 -19 5 0 6
3 9 8 7 14 -9 53 13 46 24 -4 8 -3 9 4 5 16 -10 15 7 0 23 -11 11 -9 11 9 0
l22 -13 -20 -22 c-16 -17 -18 -24 -7 -30 7 -4 10 -4 6 0 -9 11 24 46 36 39 6
-4 5 0 -2 9 -8 10 -9 19 -3 22 5 3 12 0 15 -6 3 -7 2 0 -1 16 -5 22 -3 27 7
21 9 -5 11 -4 6 4 -4 6 -11 9 -15 7 -11 -7 -36 12 -27 21 5 4 11 2 13 -5 3 -6
9 -10 14 -6 5 3 6 11 2 17 -4 6 -8 20 -8 29 -2 16 0 16 17 -2 22 -23 37 -27
18 -5 -14 17 0 21 17 4 8 -8 13 -7 18 2 5 7 4 10 -3 5 -6 -3 -13 -2 -17 3 -3
5 2 14 11 19 15 8 15 10 -1 15 -9 4 -13 12 -9 18 4 8 3 9 -5 5 -6 -4 -8 -12
-5 -18 4 -7 2 -8 -4 -4 -17 10 -15 19 9 34 12 8 19 10 16 5 -3 -5 -2 -15 2
-22 6 -9 9 -5 9 13 -1 23 -4 25 -27 20 l-26 -5 25 15 c14 8 27 13 31 11 3 -2
6 1 7 8 0 7 3 21 5 32 2 11 -1 26 -7 34 -9 12 -7 13 9 7 15 -5 17 -4 8 5 -12
12 -37 3 -29 -10 3 -4 -5 -13 -16 -20 -20 -13 -20 -13 1 17 11 17 19 37 15 45
-3 8 2 17 12 21 14 5 15 4 5 -8 -8 -9 -8 -16 -2 -20 11 -7 18 3 15 22 -1 6 -2
19 -3 28 -1 14 -2 14 -17 0 -15 -16 -24 -20 -24 -12 0 3 8 12 17 21 15 16 18
15 35 -7 16 -20 17 -20 12 -3 -13 37 -24 45 -48 34 -19 -9 -19 -9 -4 4 10 8
15 17 12 20 -9 8 29 56 44 57 7 0 10 4 7 10 -3 5 22 38 56 72 34 35 58 57 54
49 -5 -9 -4 -12 2 -8 6 4 18 0 29 -7 17 -13 16 -14 -14 -11 -17 1 -29 -1 -26
-6 3 -5 10 -7 15 -4 17 11 9 -4 -16 -29 -13 -14 -27 -20 -30 -15 -4 5 -2 9 3
9 15 0 23 28 10 36 -7 4 -8 3 -4 -4 4 -7 3 -12 -2 -12 -16 0 -24 -33 -10 -42
7 -4 11 -8 8 -9 -3 0 -13 -2 -23 -4 -13 -2 -17 1 -13 11 10 26 -3 14 -20 -17
-8 -17 -12 -29 -7 -26 5 3 9 -4 10 -16 0 -12 -1 -16 -4 -9 -3 6 -10 9 -15 6
-7 -4 -8 -2 -4 4 4 7 2 12 -3 12 -6 0 -11 -7 -11 -15 0 -8 7 -15 15 -15 14 0
19 -12 16 -32 -2 -13 6 -9 20 9 10 11 10 14 2 9 -21 -12 -15 12 8 33 12 11 29
17 38 14 9 -3 12 -2 6 4 -23 18 4 60 30 45 5 -3 3 3 -5 13 -14 17 -13 18 3 12
10 -4 21 -7 23 -7 3 0 2 -5 -2 -12 -4 -7 -3 -8 5 -4 6 4 9 12 6 17 -4 5 0 18
8 30 14 20 16 20 27 2 9 -15 11 -15 6 -1 -3 11 2 19 15 23 13 4 18 12 14 24
-3 12 1 17 15 18 13 1 18 -2 14 -9 -5 -7 -2 -8 6 -3 10 6 7 13 -11 27 -22 17
-22 18 -4 16 11 -2 24 -7 28 -13 5 -6 7 -3 3 8 -3 9 -1 17 5 17 6 0 9 7 6 15
-4 8 -2 17 3 20 6 4 10 1 10 -4 0 -6 8 -11 18 -11 9 0 13 4 7 8 -13 9 -18 32
-7 32 5 0 14 -10 21 -22 11 -22 8 -6 -5 27 -4 10 0 13 15 10 11 -2 23 0 26 5
3 5 12 7 20 3 8 -3 15 0 15 6 0 6 -3 10 -7 10 -21 -3 -34 2 -28 11 4 6 11 7
17 4 7 -4 8 -2 4 4 -4 7 -1 12 6 12 10 0 9 3 -2 11 -13 9 -13 10 0 6 8 -2 14
-13 13 -23 -1 -16 1 -15 16 5 12 15 20 20 24 12 4 -8 5 -7 3 1 -2 7 -9 12 -15
11 -17 -4 -13 14 5 21 21 8 26 8 20 -2 -3 -5 1 -9 8 -9 7 0 13 6 13 13 0 7 -4
11 -8 9 -4 -3 -10 2 -13 11 -3 8 -2 12 4 9 10 -6 57 21 53 30 -7 12 -2 26 7
20 5 -3 7 0 5 7 -4 9 2 14 16 15 14 1 18 -2 11 -10 -11 -14 -12 -48 -1 -41 5
2 6 11 3 19 -4 8 1 18 10 21 14 5 14 8 1 21 -9 8 -13 19 -10 24 4 5 1 9 -4 9
-6 0 -11 -9 -11 -21 0 -11 -4 -18 -9 -15 -14 9 8 59 36 79 23 18 24 18 43 -5
11 -13 17 -28 15 -35 -2 -7 1 -15 7 -19 7 -4 8 -3 4 4 -4 7 -2 12 4 12 7 0 10
7 6 15 -3 8 5 26 19 41 21 22 23 23 18 5 -3 -12 -8 -21 -12 -21 -4 0 -7 -8 -8
-19 -1 -17 1 -16 25 6 25 23 27 23 39 7 8 -11 13 -13 13 -5 0 7 4 9 10 6 6 -3
7 1 4 9 -3 9 -2 16 4 16 6 0 13 -6 15 -12 4 -10 6 -10 6 0 1 7 6 10 11 7 6 -3
13 1 16 10 6 13 8 14 15 3 6 -9 9 -10 9 -1 0 8 7 10 17 6 15 -6 16 -5 3 9 -8
9 -17 12 -18 7 -2 -5 -8 -7 -13 -3 -5 3 -12 -2 -15 -11 -6 -13 -8 -14 -15 -3
-7 10 -9 11 -9 0 0 -7 -4 -10 -10 -7 -5 3 -10 11 -10 16 0 6 5 7 10 4 6 -3 11
-1 11 4 3 26 4 30 11 36 4 4 5 -5 2 -19 -4 -26 -4 -26 19 -11 13 8 26 13 29
10 13 -13 45 -12 45 1 0 11 -3 11 -15 1 -13 -11 -14 -9 -1 11 8 12 17 22 22
22 4 0 5 5 1 11 -4 8 0 8 15 0 14 -8 21 -8 21 -1 0 5 9 10 21 10 11 0 17 -4
14 -10 -11 -18 7 -10 26 12 26 30 24 41 -3 15 -11 -11 -18 -10 -38 1 -25 13
-25 14 -1 9 26 -6 73 11 65 24 -3 5 2 6 11 2 12 -4 13 -8 5 -13 -8 -5 -7 -9 5
-13 11 -5 14 -3 9 5 -5 8 -2 9 9 5 14 -5 15 -3 5 13 -7 10 -15 17 -19 14 -4
-2 -10 0 -13 5 -8 12 13 8 41 -7 19 -10 20 -9 16 8 -3 11 -10 17 -17 13 -6 -3
-7 -2 -3 3 5 5 14 9 20 9 7 0 11 9 10 20 -1 11 0 14 3 8 3 -7 10 -13 15 -13 6
0 8 4 5 9 -4 5 4 7 16 4 19 -4 20 -3 8 6 -13 9 -12 11 5 11 17 0 17 2 5 10
-10 6 -11 10 -2 10 6 0 12 8 12 17 0 15 2 14 14 -3 8 -10 18 -15 22 -11 5 4 2
12 -6 17 -8 6 -10 10 -5 10 6 0 16 -5 23 -12 7 -7 12 -8 12 -4 0 5 6 3 14 -3
10 -8 16 -9 21 -1 4 6 1 9 -7 8 -8 -2 -12 4 -10 15 2 9 -2 17 -8 17 -6 0 -9
-4 -5 -9 3 -5 0 -13 -6 -17 -8 -4 -9 -3 -5 4 4 7 1 12 -6 12 -8 1 -7 4 4 10
17 11 51 3 43 -9 -2 -4 2 -8 10 -8 8 0 13 5 12 11 -1 6 3 10 9 9 12 -2 15 23
7 47 -3 8 -7 23 -8 32 -1 13 2 15 11 7 16 -13 40 -1 76 39 22 25 33 30 59 27
29 -4 30 -3 13 9 -17 13 -16 14 14 11 17 -1 29 1 26 6 -3 5 -10 6 -16 3 -6 -4
-9 -1 -6 7 3 8 10 14 16 14 5 0 13 3 16 8 3 4 3 5 0 2 -7 -5 -34 19 -34 31 0
3 7 0 16 -7 15 -12 16 -11 10 7 -4 15 -2 24 9 27 8 4 12 13 9 22 -7 17 11 21
22 3 4 -7 3 -8 -4 -4 -8 5 -10 2 -6 -8 3 -9 1 -16 -6 -16 -6 0 -8 -5 -4 -12 5
-7 3 -8 -5 -3 -10 6 -11 3 -2 -14 14 -25 23 -28 14 -4 -5 12 -3 14 7 8 9 -5
11 -4 6 4 -4 6 0 23 9 38 9 14 12 22 6 19 -6 -4 -11 0 -11 9 0 10 5 14 13 10
6 -4 4 0 -5 8 -19 15 -24 47 -8 47 5 0 7 -7 4 -15 -4 -8 -2 -15 4 -15 14 0 9
30 -7 39 -7 5 -12 14 -11 22 4 24 0 40 -7 36 -5 -3 -9 6 -9 20 -2 29 -5 32
-33 38 -12 2 -28 11 -37 20 -9 8 -20 13 -25 10 -5 -4 -9 -2 -9 3 0 5 -25 15
-55 22 -30 7 -55 16 -55 19 0 9 -130 9 -136 -1z m337 -261 c-10 -9 -11 -8 -5
6 3 10 9 15 12 12 3 -3 0 -11 -7 -18z m-34 -102 c5 -4 2 -5 -6 0 -10 6 -13 4
-9 -7 4 -8 1 -15 -7 -15 -8 0 -11 7 -7 15 4 11 1 13 -8 7 -8 -5 -11 -4 -7 3 8
12 32 10 44 -3z m-140 -100 c0 -8 -4 -12 -9 -9 -5 3 -6 10 -3 15 9 13 12 11
12 -6z m-100 -80 c0 -8 -4 -12 -9 -9 -5 3 -6 10 -3 15 9 13 12 11 12 -6z m56
-7 c20 5 21 4 8 -11 -10 -13 -17 -15 -27 -6 -8 6 -14 17 -13 23 0 8 2 8 5 0 3
-7 15 -9 27 -6z m-143 -63 c-7 -8 -17 -15 -23 -15 -6 0 -2 7 9 15 25 19 30 19
14 0z m-90 -75 c0 -5 -2 -10 -4 -10 -3 0 -8 5 -11 10 -3 6 -1 10 4 10 6 0 11
-4 11 -10z m-70 -45 c-7 -8 -17 -15 -23 -15 -6 0 -2 7 9 15 25 19 30 19 14 0z
m-110 -87 c0 -4 -4 -8 -9 -8 -6 0 -12 4 -15 8 -3 5 1 9 9 9 8 0 15 -4 15 -9z
m-116 -54 c-1 -14 -5 -28 -8 -31 -4 -4 -2 45 3 55 5 10 8 -3 5 -24z m-24 -4
c0 -5 -2 -10 -4 -10 -3 0 -8 5 -11 10 -3 6 -1 10 4 10 6 0 11 -4 11 -10z m-80
-9 c0 -6 -5 -13 -12 -17 -6 -4 -8 -3 -4 4 3 5 0 13 -6 15 -8 3 -6 6 5 6 9 1
17 -3 17 -8z m-116 -65 c-3 -9 -10 -16 -15 -16 -5 0 -9 -5 -9 -11 0 -5 4 -8 9
-5 5 4 4 -5 -2 -19 -7 -15 -18 -23 -26 -20 -11 4 -11 2 -2 -9 19 -23 -6 -30
-35 -11 -24 16 -25 17 -8 30 10 7 26 11 36 10 10 -2 20 0 23 5 3 5 -4 7 -15 5
-27 -5 -25 0 12 34 36 32 42 33 32 7z m-85 -105 c9 -15 6 -22 -15 -36 -18 -12
-29 -13 -38 -6 -10 9 -13 6 -11 -13 2 -14 -3 -30 -10 -36 -8 -6 -13 -17 -11
-23 1 -7 1 -8 -2 -3 -2 4 -9 2 -14 -5 -8 -11 -9 -10 -4 4 5 15 -4 22 -26 18
-12 -2 -9 17 3 25 6 3 15 1 19 -6 5 -9 9 -9 14 -1 4 6 11 9 15 7 4 -3 8 1 8 9
0 11 -4 12 -14 3 -24 -19 -26 -1 -2 23 18 18 25 20 41 10 17 -11 18 -10 9 7
-7 13 -7 22 1 30 17 17 26 15 37 -7z m-119 -117 c0 -6 -7 -17 -15 -24 -8 -7
-12 -17 -8 -23 3 -5 1 -7 -4 -4 -6 4 -16 0 -23 -8 -7 -8 -9 -15 -5 -15 4 0 3
-6 -3 -13 -17 -20 -66 -16 -70 6 -2 10 0 16 5 15 5 -2 26 16 47 39 36 39 76
53 76 27z m-107 -118 c3 3 8 0 13 -7 4 -7 3 -10 -3 -6 -6 4 -16 0 -23 -8 -10
-12 -10 -15 1 -15 9 0 10 -3 3 -10 -17 -17 -48 -19 -68 -4 -19 13 -18 15 7 38
15 14 27 31 27 38 1 8 8 4 19 -9 10 -12 21 -20 24 -17z m-82 -99 c-10 -9 -11
-8 -5 6 3 10 9 15 12 12 3 -3 0 -11 -7 -18z m-91 -71 c0 6 7 11 15 11 20 0 19
-2 -8 -20 -21 -14 -23 -13 -25 6 -1 17 1 19 8 7 5 -8 10 -10 10 -4z m-95 -238
c-6 -30 -21 -43 -29 -23 -3 9 -2 14 3 11 5 -3 11 3 14 14 7 27 17 25 12 -2z
m-48 -40 c-3 -8 -6 -5 -6 6 -1 11 2 17 5 13 3 -3 4 -12 1 -19z m-7 -93 c0 -5
-5 -3 -10 5 -5 8 -10 20 -10 25 0 6 5 3 10 -5 5 -8 10 -19 10 -25z m-36 -115
c-8 -8 -15 -5 -25 7 -13 17 -13 17 5 3 18 -14 19 -13 12 5 -6 16 -5 18 5 8 9
-9 10 -16 3 -23z m-114 -135 c-7 -9 -15 -13 -19 -10 -3 3 1 10 9 15 21 14 24
12 10 -5z m-220 -174 c0 -6 -4 -12 -8 -15 -5 -3 -9 1 -9 9 0 8 4 15 9 15 4 0
8 -4 8 -9z m-439 -54 c-10 -9 -11 -8 -5 6 3 10 9 15 12 12 3 -3 0 -11 -7 -18z
m383 11 c-3 -4 -9 -8 -15 -8 -5 0 -9 4 -9 8 0 5 7 9 15 9 8 0 12 -4 9 -9z
m-25 -22 c9 -10 7 -17 -6 -27 -16 -12 -17 -12 -6 2 10 12 10 18 1 27 -7 7 -9
12 -6 12 3 0 11 -6 17 -14z m-134 -67 c-10 -15 -25 -10 -19 6 4 8 10 12 15 9
5 -3 7 -10 4 -15z"/>
<path d="M1463 1352 c1 -12 6 -18 15 -15 7 3 10 9 5 12 -4 3 -11 10 -15 15 -4
4 -6 -1 -5 -12z"/>
<path d="M1340 1225 c-7 -8 -16 -12 -21 -9 -5 3 -8 0 -7 -7 2 -6 -3 -14 -11
-17 -9 -3 -11 0 -6 8 5 8 4 11 -3 6 -6 -4 -8 -14 -5 -23 4 -10 2 -14 -4 -10
-6 4 -13 1 -16 -6 -3 -8 2 -13 11 -12 10 0 17 4 17 7 0 4 16 23 34 42 19 20
32 36 29 36 -3 0 -11 -7 -18 -15z"/>
<path d="M1215 1118 c-6 -13 -17 -22 -25 -20 -11 3 -11 0 -1 -11 11 -14 45
-18 39 -5 -2 3 4 13 12 23 8 11 10 16 3 12 -6 -4 -13 -1 -15 8 -2 12 -6 10
-13 -7z m12 -21 c0 -8 -6 -14 -14 -14 -9 0 -10 4 -2 14 6 7 12 13 14 13 1 0 2
-6 2 -13z"/>
<path d="M966 2218 c3 -5 10 -6 15 -3 13 9 11 12 -6 12 -8 0 -12 -4 -9 -9z"/>
<path d="M325 2000 c-3 -5 1 -10 10 -10 9 0 13 5 10 10 -3 6 -8 10 -10 10 -2
0 -7 -4 -10 -10z"/>
<path d="M809 1998 c-6 -23 -7 -48 -1 -48 4 0 8 11 8 25 0 21 -4 33 -7 23z"/>
<path d="M2427 1959 c-15 -17 -42 -36 -59 -43 -23 -10 -27 -15 -17 -22 23 -14
38 -13 32 3 -5 13 -2 14 18 4 22 -11 22 -11 6 2 -15 13 -16 15 -2 21 8 3 15 0
16 -7 0 -7 4 -2 10 11 5 13 13 21 19 17 6 -4 7 1 3 12 -6 15 -4 16 9 5 13 -10
17 -10 21 2 4 9 1 18 -5 22 -7 4 -8 3 -4 -4 4 -7 3 -12 -3 -12 -5 0 -11 4 -13
10 -1 5 -16 -5 -31 -21z"/>
<path d="M816 1915 c-9 -26 -7 -32 5 -12 6 10 9 21 6 23 -2 3 -7 -2 -11 -11z"/>
<path d="M290 1783 c0 -4 5 -15 10 -23 8 -13 10 -13 10 2 0 9 -4 20 -10 23 -5
3 -10 3 -10 -2z"/>
<path d="M2213 1770 c-1 -11 3 -20 8 -20 6 0 7 5 4 10 -3 6 2 10 12 10 15 0
16 2 3 10 -22 14 -26 12 -27 -10z"/>
<path d="M2151 1723 c-9 -7 -11 -12 -4 -13 6 0 14 4 18 10 3 5 12 7 19 4 8 -3
16 -2 19 3 8 13 -33 10 -52 -4z"/>
<path d="M285 1690 c-16 -7 -17 -9 -3 -9 9 -1 20 4 23 9 7 11 7 11 -20 0z"/>
<path d="M263 1637 c0 -8 6 -14 13 -14 7 0 10 6 7 14 -3 7 -8 13 -12 13 -4 0
-8 -6 -8 -13z"/>
<path d="M676 1621 c-3 -4 -8 -22 -11 -39 -5 -32 8 -52 21 -31 4 8 3 9 -4 5
-18 -11 -14 4 6 22 9 10 13 14 8 10 -22 -17 -29 -6 -9 11 18 15 20 20 8 25 -8
3 -17 2 -19 -3z"/>
<path d="M1985 1610 c-3 -5 -12 -7 -19 -4 -8 3 -16 1 -19 -3 -8 -12 10 -39 20
-30 4 5 1 12 -7 18 -11 7 -5 8 20 5 19 -3 29 -3 22 0 -6 3 -10 10 -6 15 3 5 3
9 0 9 -3 0 -7 -4 -11 -10z"/>
<path d="M270 1596 c0 -8 4 -17 8 -20 4 -2 8 4 8 15 0 10 -4 19 -8 19 -4 0 -8
-6 -8 -14z"/>
<path d="M250 1566 c0 -2 7 -7 16 -10 8 -3 12 -2 9 4 -6 10 -25 14 -25 6z"/>
<path d="M1617 1502 c-10 -10 -14 -22 -10 -26 5 -4 8 -13 8 -19 0 -7 11 -11
23 -10 13 2 21 -1 17 -7 -3 -6 -2 -10 3 -10 15 0 9 53 -9 73 -15 16 -16 16
-32 -1z m22 1 c-3 -21 2 -33 13 -27 7 4 8 3 4 -4 -5 -9 -13 -9 -27 -1 -16 8
-18 13 -8 25 13 15 20 18 18 7z"/>
<path d="M1748 1489 c-10 -5 -18 -15 -18 -22 0 -8 3 -7 9 2 5 7 13 11 18 8 5
-3 10 0 10 8 0 8 -1 15 -1 15 -1 0 -9 -5 -18 -11z"/>
<path d="M606 1455 c-9 -14 -13 -25 -9 -25 10 0 36 40 30 46 -2 3 -12 -7 -21
-21z"/>
<path d="M130 1460 c0 -5 -6 -10 -14 -10 -8 0 -17 -4 -20 -8 -2 -4 8 -7 22 -6
15 1 38 -5 51 -13 l24 -16 -22 32 c-22 31 -41 40 -41 21z m24 -8 c3 -5 -1 -9
-9 -9 -8 0 -12 4 -9 9 3 4 7 8 9 8 2 0 6 -4 9 -8z"/>
<path d="M986 1455 c-11 -8 -15 -15 -9 -15 7 0 15 5 19 12 5 7 11 5 21 -7 7
-10 23 -20 35 -21 13 -2 17 0 11 2 -7 3 -15 5 -18 4 -3 0 -14 8 -23 19 -15 18
-19 19 -36 6z"/>
<path d="M230 1438 c0 -4 4 -8 9 -8 6 0 12 4 15 8 3 5 -1 9 -9 9 -8 0 -15 -4
-15 -9z"/>
<path d="M626 1418 c3 -5 10 -6 15 -3 13 9 11 12 -6 12 -8 0 -12 -4 -9 -9z"/>
<path d="M1626 1398 c3 -5 10 -6 15 -3 13 9 11 12 -6 12 -8 0 -12 -4 -9 -9z"/>
<path d="M1336 1141 c-4 -5 3 -7 14 -4 23 6 26 13 6 13 -8 0 -17 -4 -20 -9z"/>
<path d="M1110 921 c0 -6 4 -13 10 -16 6 -3 7 1 4 9 -7 18 -14 21 -14 7z"/>
<path d="M1004 909 c-3 -6 5 -22 19 -34 l25 -23 0 22 c0 26 -33 52 -44 35z"/>
<path d="M927 539 c7 -9 10 -19 6 -22 -3 -4 -1 -7 5 -7 17 0 15 16 -5 31 -16
12 -17 12 -6 -2z"/>
<path d="M896 393 c-6 -14 -5 -15 5 -6 7 7 10 15 7 18 -3 3 -9 -2 -12 -12z"/>
<path d="M715 250 c3 -5 8 -10 11 -10 2 0 4 5 4 10 0 6 -5 10 -11 10 -5 0 -7
-4 -4 -10z"/>
<path d="M657 202 c-14 -15 -15 -24 -7 -43 l11 -24 -5 23 c-3 17 -1 22 9 18
19 -7 28 10 17 29 -7 14 -10 13 -25 -3z m23 -12 c0 -5 -2 -10 -4 -10 -3 0 -8
5 -11 10 -3 6 -1 10 4 10 6 0 11 -4 11 -10z"/>
<path d="M587 135 c-15 -11 -16 -14 -2 -25 13 -11 14 -10 8 6 -6 16 -5 17 9 6
14 -11 16 -11 14 2 -3 23 -9 26 -29 11z"/>
<path d="M67 119 c7 -7 15 -10 18 -7 3 3 -2 9 -12 12 -14 6 -15 5 -6 -5z"/>
<path d="M171 77 c-1 -15 4 -17 21 -11 21 6 22 6 8 -12 -13 -17 -13 -18 0 -7
8 6 18 12 23 12 4 1 7 4 6 9 -1 4 -5 6 -10 5 -5 -2 -9 2 -9 8 0 8 -4 8 -14 0
-11 -9 -15 -9 -19 1 -3 8 -6 6 -6 -5z"/>
<path d="M426 53 c-5 -13 -9 -14 -15 -5 -4 7 -15 10 -25 6 -12 -5 -14 -10 -6
-20 7 -7 19 -10 27 -7 12 5 14 3 8 -8 -5 -8 -5 -11 1 -6 5 5 10 13 10 18 3 22
5 23 14 9 8 -13 10 -13 10 2 0 24 -17 31 -24 11z"/>
</g>
</svg>
