<?xml version="1.0" standalone="no"?>
<!DOCTYPE svg PUBLIC "-//W3C//DTD SVG 20010904//EN"
 "http://www.w3.org/TR/2001/REC-SVG-20010904/DTD/svg10.dtd">
<svg version="1.0" xmlns="http://www.w3.org/2000/svg"
 width="260.000000pt" height="260.000000pt" viewBox="0 0 260.000000 260.000000"
 preserveAspectRatio="xMidYMid meet">
<metadata>
Created by potrace 1.11, written by Peter Selinger 2001-2013
</metadata>
<g transform="translate(0.000000,260.000000) scale(0.100000,-0.100000)"
fill="#000000" stroke="none">
<path d="M245 2549 c-4 -6 -52 -244 -105 -528 -67 -356 -94 -520 -88 -528 6
-7 25 -13 43 -13 18 0 38 -7 45 -15 19 -23 67 -19 84 8 7 12 35 137 60 277 26
140 51 259 55 263 8 8 25 -35 140 -368 l59 -170 48 0 49 0 88 263 c49 144 92
262 97 262 4 0 22 -78 40 -172 71 -381 61 -343 97 -346 17 -2 37 -10 43 -18
18 -21 64 -17 86 7 19 21 18 27 -71 462 -49 243 -98 483 -110 532 l-21 90 -49
0 -50 0 -76 -250 c-43 -137 -89 -290 -104 -338 -15 -49 -30 -86 -33 -82 -4 3
-57 156 -118 338 l-111 332 -45 3 c-28 2 -49 -2 -53 -9z"/>
<path d="M2153 2368 c-10 -12 -302 -839 -373 -1053 -55 -167 -122 -345 -129
-345 -4 0 -18 37 -33 82 -14 46 -42 126 -61 178 -20 52 -59 158 -87 235 -28
77 -55 149 -60 160 -6 11 -18 45 -28 75 -16 46 -23 55 -45 58 -21 3 -29 -2
-36 -20 -5 -13 -41 -90 -80 -172 -39 -81 -71 -149 -71 -151 0 -1 -29 -63 -63
-136 -92 -193 -114 -241 -122 -268 -7 -24 -152 -332 -160 -339 -2 -3 -28 9
-57 25 -76 43 -154 63 -245 63 -95 0 -155 -17 -225 -64 -29 -20 -58 -36 -64
-36 -24 0 -214 -100 -214 -113 0 -9 38 6 105 40 58 29 111 53 118 53 7 0 36
16 65 36 68 45 130 64 215 64 102 0 195 -32 347 -121 19 -11 61 -35 93 -54 31
-19 67 -37 80 -40 58 -16 189 -67 272 -106 22 -10 58 -26 80 -34 l40 -16 -25
-20 c-14 -11 -52 -42 -85 -70 -33 -27 -99 -81 -147 -120 -81 -66 -128 -120
-128 -148 0 -21 19 -11 39 23 12 18 60 65 109 104 48 39 106 87 128 107 111
95 273 205 303 205 29 0 113 21 126 31 46 35 207 59 399 59 117 0 153 -4 201
-20 32 -11 69 -20 81 -20 13 0 58 -11 100 -25 90 -29 84 -28 84 -12 0 13 -129
57 -166 57 -11 0 -47 9 -80 21 -55 19 -75 20 -280 16 l-220 -4 -72 196 c-39
108 -75 209 -78 224 -9 39 105 366 119 340 27 -52 80 -56 162 -13 44 23 61 28
76 20 10 -6 19 -15 19 -20 0 -4 15 -18 34 -30 38 -23 62 -25 243 -19 l122 4
60 -210 c48 -169 60 -201 60 -165 1 27 -24 133 -59 259 -33 118 -60 223 -60
233 0 10 -52 201 -115 425 -168 596 -164 583 -189 583 -8 0 -18 -6 -23 -12z
m161 -482 c115 -412 126 -462 115 -484 -12 -21 -18 -23 -54 -19 -22 3 -87 1
-145 -5 l-104 -11 -46 49 c-76 83 -73 82 -126 36 -44 -39 -109 -70 -121 -58
-4 4 243 716 329 945 5 13 12 20 17 15 4 -5 65 -216 135 -468z m-960 -172 c7
-26 175 -483 222 -603 20 -52 23 -69 14 -85 -10 -20 -20 -21 -162 -23 l-151
-2 -50 39 c-27 22 -55 40 -63 40 -7 0 -34 -13 -61 -29 -26 -16 -63 -32 -81
-36 -32 -7 -34 -6 -27 15 4 12 43 97 86 187 43 91 79 167 79 168 0 2 36 79 80
171 44 91 80 170 80 175 0 21 28 7 34 -17z m-301 -822 c21 -2 56 5 83 17 61
27 78 26 121 -6 36 -28 39 -28 187 -28 83 -1 163 2 177 6 25 6 27 4 89 -165
34 -94 65 -177 67 -183 3 -8 -3 -13 -14 -13 -10 0 -27 -6 -38 -13 -22 -16
-102 -37 -137 -37 -13 0 -52 -20 -88 -44 -59 -39 -66 -42 -90 -30 -28 14 -129
60 -175 79 -40 18 -165 63 -192 70 -21 6 -73 34 -174 96 l-37 22 65 136 c36
75 67 142 70 148 3 8 13 0 27 -20 17 -25 30 -33 59 -35z"/>
</g>
</svg>
