<?xml version="1.0" standalone="no"?>
<!DOCTYPE svg PUBLIC "-//W3C//DTD SVG 20010904//EN"
 "http://www.w3.org/TR/2001/REC-SVG-20010904/DTD/svg10.dtd">
<svg version="1.0" xmlns="http://www.w3.org/2000/svg"
 width="260.000000pt" height="260.000000pt" viewBox="0 0 260.000000 260.000000"
 preserveAspectRatio="xMidYMid meet">
<metadata>
Created by potrace 1.11, written by Peter Selinger 2001-2013
</metadata>
<g transform="translate(0.000000,260.000000) scale(0.100000,-0.100000)"
fill="#000000" stroke="none">
<path d="M245 2549 c-4 -6 -52 -244 -105 -528 -67 -356 -94 -520 -88 -528 6
-7 25 -13 43 -13 18 0 38 -7 45 -15 19 -23 67 -19 84 8 7 12 35 137 60 277 26
140 51 259 55 263 8 8 25 -35 140 -368 l59 -170 48 0 49 0 88 263 c49 144 92
262 97 262 4 0 22 -78 40 -172 71 -381 61 -343 97 -346 17 -2 37 -10 43 -18
18 -21 64 -17 86 7 19 21 18 27 -71 462 -49 243 -98 483 -110 532 l-21 90 -49
0 -50 0 -76 -250 c-43 -137 -89 -290 -104 -338 -15 -49 -30 -86 -33 -82 -4 3
-57 156 -118 338 l-111 332 -45 3 c-28 2 -49 -2 -53 -9z"/>
<path d="M1615 1704 c-22 -3 -49 -9 -60 -14 -11 -5 -50 -18 -87 -29 -118 -35
-203 -87 -307 -185 -69 -66 -134 -148 -145 -184 -4 -12 -11 -22 -16 -22 -4 0
-10 -10 -13 -22 -7 -25 -59 -171 -73 -203 -13 -31 -11 -328 3 -356 6 -13 19
-49 29 -79 70 -227 250 -421 497 -535 223 -103 468 -100 692 10 163 79 279
196 360 360 70 141 80 191 80 400 l0 180 -37 108 c-45 134 -106 233 -198 323
-107 104 -209 170 -310 200 -47 14 -93 29 -103 35 -19 10 -246 20 -312 13z
m270 -29 c167 -36 297 -101 411 -207 114 -107 183 -219 231 -375 23 -75 26
-107 27 -218 1 -142 -11 -201 -66 -333 -30 -72 -30 -73 -54 -57 -26 17 -90 20
-99 5 -4 -7 -12 -7 -25 0 -27 14 -56 12 -70 -5 -8 -9 -22 -12 -41 -8 -44 8
-116 -16 -142 -47 -17 -21 -33 -29 -69 -32 -44 -5 -47 -4 -53 21 -10 40 -34
61 -72 61 -31 0 -34 2 -27 23 4 12 8 33 8 47 1 23 -3 25 -39 25 -33 0 -42 -4
-53 -27 -20 -43 -51 -46 -84 -9 -45 51 -35 145 19 170 31 14 56 14 71 -1 10
-10 14 -8 18 8 3 12 17 27 30 33 31 14 81 -9 93 -42 21 -54 77 -63 65 -10 -4
16 -15 37 -25 49 -27 29 -24 44 15 86 40 44 52 74 37 92 -16 19 -3 44 30 62
30 15 37 42 18 61 -8 8 -4 19 15 40 21 22 26 24 26 10 0 -9 6 -17 13 -17 17 0
60 58 52 70 -10 16 -35 12 -42 -6 -5 -15 -7 -15 -15 0 -5 9 -20 16 -34 16 -33
0 -23 15 27 39 l40 20 10 -25 c10 -28 35 -29 53 -2 8 14 6 21 -9 33 -11 8 -28
13 -37 11 -13 -3 -18 2 -18 15 0 13 -17 29 -47 47 -26 15 -58 37 -71 50 -23
22 -60 24 -47 2 9 -15 -6 -12 -25 5 -10 9 -34 18 -54 22 -48 8 -55 -13 -21
-63 16 -24 24 -46 21 -59 -3 -11 -6 -31 -6 -44 0 -20 -2 -21 -15 -11 -8 7 -15
18 -15 26 0 7 -29 28 -65 45 -74 37 -82 58 -40 107 15 18 23 37 20 49 -3 10 2
3 10 -15 18 -38 39 -38 43 0 2 17 -4 32 -20 44 -13 11 -27 27 -31 37 -8 22
-26 22 -34 1 -4 -10 0 -22 9 -28 11 -8 -5 -11 -66 -10 -87 1 -209 37 -232 68
-8 11 -27 16 -63 16 -47 0 -53 -3 -69 -30 -9 -16 -23 -30 -30 -30 -7 0 -21
-13 -30 -30 -13 -23 -24 -30 -49 -30 -39 0 -53 -18 -27 -37 26 -19 84 -8 106
20 15 20 19 20 32 7 17 -16 28 -77 16 -85 -3 -2 -7 -32 -8 -67 0 -35 -1 -80
-1 -100 -1 -24 -10 -47 -27 -67 -24 -29 -25 -36 -22 -118 4 -68 11 -102 32
-151 15 -35 29 -73 31 -84 12 -58 53 -118 81 -118 25 0 26 22 2 48 -28 31 -62
105 -56 122 4 13 62 -72 72 -107 4 -13 11 -23 14 -23 7 0 30 -41 51 -93 14
-36 125 -107 167 -107 47 0 176 -49 207 -78 24 -23 37 -27 88 -27 61 1 74 -10
43 -36 -20 -16 -39 -58 -39 -85 1 -40 58 -84 109 -84 84 0 -33 -54 -184 -85
-235 -48 -513 37 -704 215 -98 92 -188 246 -228 392 -31 113 -31 288 0 401 55
199 184 377 352 485 169 109 401 156 585 117z m-15 -540 c10 -12 10 -15 -3
-15 -8 0 -17 7 -21 15 -3 8 -2 15 3 15 5 0 14 -7 21 -15z m-49 -31 c8 -8 22
-14 30 -14 31 0 39 -15 22 -40 l-16 -23 -9 22 c-12 33 -32 20 -39 -25 -4 -31
-7 -35 -14 -20 -4 10 -8 32 -9 50 -1 28 -4 31 -29 28 -29 -3 -30 3 -4 36 11
14 43 7 68 -14z m109 -74 c0 -13 -37 -50 -50 -50 -5 0 -10 7 -10 15 0 8 9 15
20 15 11 0 23 7 26 15 7 17 14 20 14 5z"/>
<path d="M1796 1625 c-9 -14 -16 -34 -14 -43 4 -19 62 -51 94 -52 11 0 60 -29
109 -65 48 -36 96 -65 106 -65 32 0 32 21 1 53 -16 18 -32 48 -36 68 -6 33
-13 39 -89 76 -46 23 -99 44 -118 48 -31 6 -38 3 -53 -20z"/>
<path d="M1693 1585 c-30 -21 -29 -39 1 -53 31 -14 69 10 64 41 -4 27 -35 33
-65 12z"/>
<path d="M1614 1537 c-3 -8 -16 -12 -32 -9 -17 2 -33 -2 -41 -12 -10 -12 -7
-17 19 -31 38 -20 75 -16 74 6 -1 14 3 15 27 5 21 -7 32 -7 40 1 8 8 1 17 -29
32 -48 25 -51 25 -58 8z"/>
<path d="M2085 1539 c-9 -13 13 -30 35 -26 8 1 15 9 15 17 0 18 -40 26 -50 9z"/>
<path d="M1755 1521 c-6 -10 55 -61 73 -61 6 0 12 -12 14 -27 2 -19 10 -29 23
-31 11 -2 30 -8 42 -14 27 -13 53 -4 53 18 0 51 -181 153 -205 115z"/>
<path d="M1976 701 c-8 -12 21 -34 34 -26 17 11 11 35 -9 35 -11 0 -22 -4 -25
-9z"/>
<path d="M1885 616 c-27 -20 -13 -31 43 -33 26 -1 63 -4 83 -8 26 -5 39 -3 48
9 17 20 6 35 -27 36 -15 0 -49 2 -77 6 -36 4 -56 1 -70 -10z"/>
<path d="M2125 609 c-4 -5 -18 -14 -32 -20 -27 -10 -27 -32 1 -37 19 -4 86 25
86 36 0 25 -43 41 -55 21z"/>
<path d="M2201 606 c-9 -10 -9 -16 -1 -21 17 -10 37 12 24 25 -8 8 -15 6 -23
-4z"/>
<path d="M2004 545 c-4 -9 -2 -21 4 -27 15 -15 44 -1 40 19 -4 23 -36 29 -44
8z"/>
</g>
</svg>
