<?xml version="1.0" standalone="no"?>
<!DOCTYPE svg PUBLIC "-//W3C//DTD SVG 20010904//EN"
 "http://www.w3.org/TR/2001/REC-SVG-20010904/DTD/svg10.dtd">
<svg version="1.0" xmlns="http://www.w3.org/2000/svg"
 width="260.000000pt" height="260.000000pt" viewBox="0 0 260.000000 260.000000"
 preserveAspectRatio="xMidYMid meet">
<metadata>
Created by potrace 1.11, written by Peter Selinger 2001-2013
</metadata>
<g transform="translate(0.000000,260.000000) scale(0.100000,-0.100000)"
fill="#000000" stroke="none">
<path d="M245 2551 c-4 -8 -41 -186 -60 -291 -2 -14 -34 -180 -69 -370 -36
-190 -67 -357 -70 -372 -4 -24 0 -29 22 -35 15 -4 33 -6 41 -4 8 1 10 -2 6
-11 -6 -10 -5 -11 6 0 7 6 18 12 23 12 7 0 6 -3 -1 -8 -8 -5 -7 -12 4 -27 12
-15 14 -16 10 -3 -3 9 1 22 9 29 8 7 14 8 12 3 -2 -5 2 -9 7 -9 6 0 9 4 7 10
-2 5 0 7 4 3 9 -10 36 11 29 22 -3 5 5 7 18 6 15 -2 24 2 24 11 0 9 -8 11 -21
8 -19 -5 -19 -5 -3 5 9 6 15 15 12 21 -11 17 -14 50 -4 44 5 -4 6 -11 3 -17
-4 -7 -2 -8 4 -4 9 5 9 13 1 28 -8 15 -8 23 2 32 9 8 10 8 5 -1 -5 -9 -2 -11
9 -6 11 4 13 8 6 13 -6 3 -14 26 -16 51 -2 24 -1 40 3 34 4 -5 16 -11 27 -12
17 -1 17 1 -5 19 -20 16 -21 19 -5 13 11 -3 16 -3 12 1 -10 10 13 35 26 27 6
-4 7 -1 3 6 -6 9 -12 8 -26 -4 -14 -12 -20 -13 -26 -4 -5 8 -3 10 6 4 9 -5 10
-2 5 14 -4 13 -2 21 5 21 6 0 8 -6 4 -12 -6 -10 -4 -10 6 -1 12 11 11 15 -4
26 -16 12 -17 14 -1 27 14 11 16 11 13 -1 -2 -8 3 -14 11 -14 8 0 15 6 17 13
1 7 0 8 -3 2 -5 -12 -24 -14 -22 -2 1 4 1 16 0 27 -1 17 -3 18 -11 5 -6 -9
-10 -10 -10 -3 0 6 4 14 9 18 6 3 8 14 6 25 -2 12 0 18 5 15 5 -3 7 -14 5 -25
-2 -11 1 -20 6 -20 6 0 7 -5 3 -12 -4 -7 -3 -8 4 -4 9 5 9 13 2 26 -8 15 -6
22 7 30 15 10 16 11 1 6 -21 -6 -32 22 -17 40 9 11 8 14 -2 14 -10 0 -10 3 -3
8 6 4 10 15 8 24 -1 10 3 21 8 25 7 3 8 1 4 -5 -4 -7 -2 -12 4 -12 7 0 10 -7
6 -15 -3 -8 0 -15 6 -15 7 0 4 -6 -5 -12 -13 -10 -14 -17 -6 -28 9 -13 10 -12
5 3 -3 9 -1 17 5 17 5 0 12 -8 15 -17 3 -10 10 -28 16 -39 5 -12 11 -33 11
-47 1 -14 5 -23 8 -21 4 2 11 -13 17 -34 6 -20 35 -107 64 -192 54 -152 55
-155 88 -161 35 -7 60 6 53 28 -2 6 5 16 16 22 14 8 21 8 24 -2 2 -6 2 -1 0
11 -2 14 0 21 6 18 5 -4 12 -2 15 3 9 14 -19 7 -40 -9 -17 -14 -18 -14 -6 2 8
9 11 21 8 26 -3 5 7 7 22 6 15 -2 21 -1 15 2 -22 10 -14 26 10 20 12 -3 16 -3
9 0 -10 5 -9 9 5 20 17 13 17 14 -1 7 -14 -4 -17 -3 -12 6 4 6 3 18 -3 25 -8
10 -7 17 4 26 12 10 13 16 3 27 -6 8 -7 13 -2 12 20 -4 24 2 14 21 -8 16 -8
18 4 14 14 -5 16 -20 4 -40 -4 -6 -1 -11 7 -11 8 0 12 4 9 8 -2 4 0 11 6 14 8
5 8 11 0 20 -7 8 -7 15 -1 19 5 3 12 0 15 -6 3 -7 3 -3 0 9 -4 16 -1 22 8 20
7 -2 10 -2 5 0 -4 3 -5 8 -2 13 3 4 -2 13 -9 19 -12 10 -14 9 -11 -6 3 -25
-14 -55 -27 -47 -8 5 -7 10 3 18 8 6 14 18 14 26 -1 8 1 20 4 25 3 6 6 13 7
18 1 4 3 9 4 12 1 3 3 10 4 15 1 12 15 14 24 4 4 -4 2 -4 -5 0 -8 4 -11 0 -8
-14 2 -11 0 -18 -4 -16 -4 3 -8 -1 -8 -8 0 -11 4 -12 18 -3 13 8 15 13 6 19
-11 7 -2 12 16 9 4 -1 1 9 -7 21 -15 22 -16 51 -4 64 4 3 4 13 1 22 -4 10 -3
14 1 10 12 -10 14 -42 4 -55 -11 -14 -2 -33 15 -32 9 0 9 2 0 6 -7 2 -13 9
-13 14 0 4 6 6 14 3 8 -3 17 -1 21 5 3 6 0 9 -8 5 -10 -4 -13 3 -12 23 1 15
-2 34 -8 41 -6 8 -5 12 3 12 7 0 10 7 6 16 -3 9 -2 12 5 9 5 -4 7 -16 3 -27
-3 -12 -2 -18 3 -15 5 4 10 1 11 -6 1 -7 10 -52 20 -102 16 -74 31 -154 57
-295 1 -8 6 -34 10 -58 7 -45 14 -51 61 -56 16 -2 29 -8 29 -14 0 -6 3 -14 7
-18 4 -4 3 -12 -2 -19 -7 -8 -5 -12 5 -12 8 0 12 4 9 8 -2 4 0 10 5 13 5 4 12
2 16 -4 3 -5 12 -10 18 -10 7 0 6 4 -3 10 -8 5 -12 10 -7 11 4 1 12 3 17 4 6
1 14 3 19 4 5 0 12 8 15 17 6 15 4 15 -10 3 -23 -19 -49 -22 -34 -4 7 8 17 13
22 12 6 -1 14 10 19 26 4 15 3 27 -2 27 -5 0 -9 5 -9 11 0 5 4 8 8 5 5 -3 9 1
9 9 0 8 -4 12 -8 10 -3 -3 -9 4 -12 15 -3 11 0 20 6 20 7 0 5 5 -3 10 -8 5
-10 10 -5 10 6 0 3 5 -5 10 -13 9 -13 10 0 10 11 0 12 2 2 8 -7 5 -13 25 -14
45 -1 20 -5 37 -10 37 -5 0 -8 10 -7 23 2 12 -1 28 -5 36 -7 11 -5 13 10 8 18
-7 18 -7 0 7 -10 9 -15 20 -10 27 4 8 3 10 -4 5 -19 -11 -14 5 6 20 14 12 14
13 1 8 -21 -7 -43 68 -25 87 8 9 8 10 -2 5 -11 -7 -17 17 -13 52 1 6 -3 12 -9
12 -5 0 -10 7 -10 15 0 8 5 15 12 15 6 0 4 6 -6 13 -11 8 -17 20 -14 28 3 8
-1 27 -8 44 -10 25 -10 31 5 43 9 7 11 11 5 8 -14 -7 -32 31 -29 62 1 12 -2
22 -7 22 -4 0 -8 8 -8 18 0 13 2 14 9 4 7 -11 9 -10 14 3 4 9 3 13 -3 10 -10
-6 -24 17 -34 58 -5 22 -4 27 6 21 10 -6 9 -3 -1 9 -7 9 -10 17 -5 17 5 0 4 4
-1 8 -6 4 -18 36 -26 72 l-14 65 -50 0 -50 0 -58 -190 c-32 -104 -74 -239 -93
-300 -19 -60 -37 -117 -39 -125 -13 -48 -23 -73 -24 -62 -2 24 -3 27 -13 39
-5 7 -7 16 -4 22 3 5 1 11 -6 13 -6 2 -12 20 -12 40 -1 20 -5 33 -10 30 -5 -3
-6 2 -3 12 4 10 3 15 -3 11 -6 -3 -10 4 -10 17 0 13 -4 28 -9 34 -5 5 -11 20
-13 34 -1 14 -6 27 -10 30 -4 3 -9 15 -11 25 -1 11 -6 26 -10 33 -5 7 -3 12 3
12 7 0 7 5 -2 13 -7 8 -35 79 -62 158 -27 79 -54 147 -60 151 -16 11 -84 10
-91 -1z m434 -922 c-12 -7 -12 -9 0 -9 8 0 12 -3 8 -6 -10 -10 -26 6 -21 21 4
8 11 12 16 9 6 -4 5 -10 -3 -15z m359 -171 c11 -14 10 -16 -5 -14 -10 2 -17 6
-15 9 1 4 2 12 2 19 0 6 1 9 3 7 1 -2 8 -12 15 -21z"/>
<path d="M966 2218 c3 -5 10 -6 15 -3 13 9 11 12 -6 12 -8 0 -12 -4 -9 -9z"/>
<path d="M986 2137 c3 -10 9 -15 12 -12 3 3 0 11 -7 18 -10 9 -11 8 -5 -6z"/>
<path d="M1148 2139 c-9 -6 -13 -41 -13 -123 1 -63 3 -117 6 -120 3 -3 18 -7
32 -8 15 -1 27 -6 27 -10 0 -4 5 -8 11 -8 5 0 8 4 5 8 -3 5 1 9 8 9 8 0 11 -8
8 -19 -2 -10 1 -18 7 -18 7 0 9 4 6 10 -4 6 1 7 11 3 13 -5 15 -3 9 8 -6 11
-5 12 6 2 20 -19 33 -16 18 5 -11 14 -10 13 9 -2 22 -19 30 -32 13 -21 -5 3
-12 2 -15 -3 -3 -5 13 -7 35 -6 21 1 42 -2 45 -8 4 -5 10 -5 17 1 7 5 14 9 17
9 17 -2 49 15 44 23 -4 6 -10 6 -18 0 -7 -6 -17 -7 -21 -3 -5 4 -5 2 -2 -4 3
-6 0 -11 -8 -11 -8 0 -16 6 -19 12 -2 7 5 11 17 10 12 -1 27 2 33 6 7 6 18 1
30 -13 10 -12 14 -18 7 -15 -6 4 -14 4 -17 -1 -3 -5 13 -7 35 -6 21 1 42 -2
45 -8 4 -5 10 -5 17 1 13 10 17 11 43 11 8 0 13 4 9 9 -3 5 8 3 25 -5 16 -9
42 -36 57 -62 l28 -47 0 -632 c0 -491 -3 -635 -13 -645 -6 -6 -12 -18 -12 -25
0 -7 -9 -22 -20 -33 -11 -11 -20 -27 -20 -35 0 -9 -12 -18 -30 -22 -16 -3 -30
-9 -30 -14 0 -5 -105 -9 -234 -9 -214 0 -234 -1 -238 -18 -6 -24 -3 -230 3
-236 3 -3 21 -6 41 -8 20 -1 34 -6 32 -10 -3 -5 -10 -5 -16 -2 -7 4 -8 2 -4
-4 5 -9 13 -9 27 -2 10 6 19 7 19 3 0 -4 4 -2 9 5 7 11 9 11 14 -2 3 -8 1 -18
-5 -22 -6 -4 -8 -3 -4 4 3 5 0 9 -6 8 -21 -3 -38 -16 -38 -29 0 -7 7 -3 15 7
14 18 20 15 16 -8 -1 -5 4 -4 11 2 17 14 40 11 64 -8 18 -14 18 -14 4 4 -8 11
-13 20 -10 22 3 1 1 6 -4 11 -5 4 -7 3 -3 -3 3 -6 0 -11 -8 -11 -15 0 -21 16
-7 18 39 5 66 2 68 -9 1 -7 0 -8 -3 -2 -7 14 -20 12 -20 -3 0 -17 55 -16 66 1
9 16 68 25 76 12 3 -5 12 -7 20 -3 8 3 15 -1 15 -8 0 -7 -3 -9 -7 -6 -3 4 -12
2 -20 -4 -10 -9 -13 -8 -13 5 0 9 -5 16 -11 16 -5 0 -7 -5 -3 -12 5 -7 2 -8
-7 -3 -11 6 -11 5 -2 -5 12 -13 76 -23 68 -11 -2 4 0 13 4 20 9 14 68 24 75
12 3 -5 18 -6 33 -4 64 9 88 8 85 -4 -1 -7 3 -13 9 -13 5 0 8 -4 5 -9 -4 -5 2
-8 11 -6 10 2 21 4 26 4 4 1 7 5 7 10 0 6 -9 8 -20 6 -11 -2 -20 0 -20 5 0 5
8 9 18 9 9 0 33 2 52 3 24 2 34 -1 32 -9 -1 -7 3 -13 9 -13 5 0 7 -6 3 -13 -6
-9 -5 -9 7 0 18 15 41 12 65 -7 16 -13 17 -13 9 0 -6 8 -10 18 -10 22 0 3 -4
10 -9 15 -5 4 -7 3 -3 -3 3 -6 0 -11 -8 -11 -15 0 -22 16 -7 18 4 0 19 2 34 4
15 2 30 0 33 -5 3 -5 12 -7 20 -3 8 3 15 0 15 -7 0 -6 -4 -8 -10 -5 -5 3 -10
2 -10 -3 0 -6 7 -13 16 -16 22 -8 31 -7 17 2 -7 4 -9 13 -4 20 9 16 68 25 76
12 3 -5 12 -7 20 -3 8 3 15 -1 15 -8 0 -7 -3 -9 -7 -6 -3 4 -12 2 -20 -4 -10
-9 -13 -8 -13 5 0 9 -5 16 -11 16 -5 0 -7 -5 -4 -10 8 -12 -17 -9 -26 4 -4 4
-10 3 -13 -3 -4 -6 -4 -11 1 -12 4 0 17 -3 28 -5 40 -10 75 -11 70 -4 -3 5 1
15 9 22 17 17 72 17 68 0 -1 -7 5 -12 14 -12 8 0 13 4 9 9 -3 6 3 10 12 10 10
0 34 2 53 3 24 2 34 -1 32 -9 -1 -7 3 -13 9 -13 5 0 8 -4 5 -9 -4 -5 2 -8 11
-6 10 2 21 4 26 4 4 1 7 5 7 10 0 6 -9 8 -20 6 -11 -2 -20 0 -20 5 0 5 8 9 18
9 9 0 33 2 52 3 26 2 35 -1 34 -12 -1 -11 11 -15 49 -15 27 -1 45 1 38 3 -6 2
-9 8 -5 13 7 12 -19 7 -29 -6 -5 -6 -7 -4 -4 5 2 8 10 14 16 12 6 -1 11 3 11
9 0 6 9 1 19 -12 19 -23 25 -9 8 18 -4 6 -3 14 3 18 6 4 8 10 5 15 -3 5 -1 12
5 15 8 5 7 12 -2 23 -11 13 -11 14 2 7 13 -7 13 -6 2 7 -10 12 -10 17 -1 20 7
2 13 12 15 21 1 9 -2 15 -7 11 -5 -3 -10 3 -11 13 0 10 -2 23 -3 28 -2 6 -3
27 -4 48 l-1 37 -230 0 c-147 0 -230 4 -230 10 0 6 -13 10 -30 10 -30 0 -74
35 -64 52 3 4 0 8 -5 8 -6 0 -11 9 -11 20 0 11 -5 20 -11 20 -8 0 -8 4 0 14 9
11 9 16 -1 23 -16 10 -19 104 -3 96 5 -2 1 3 -9 11 -17 14 -18 16 -3 16 9 0
17 5 17 11 0 5 -4 8 -9 5 -5 -4 -8 2 -7 11 2 10 -2 22 -8 26 -7 5 -3 7 9 4 15
-3 21 1 21 14 0 15 -3 16 -15 6 -12 -10 -13 -9 -7 1 4 7 2 20 -6 30 -11 15
-11 15 2 5 13 -10 16 -9 16 7 0 10 -3 17 -6 15 -4 -2 -7 2 -7 10 0 8 5 12 11
9 6 -3 3 1 -6 9 -19 15 -14 29 7 21 7 -3 16 -1 20 5 3 7 0 8 -9 5 -17 -7 -38
33 -27 51 9 15 8 29 -3 44 -8 11 -8 13 1 8 15 -9 14 32 -1 53 -9 12 -8 13 4 3
13 -10 16 -9 16 7 0 10 -4 16 -9 13 -5 -3 -4 3 1 14 6 11 7 25 2 33 -5 8 -6
18 -3 22 2 5 -1 17 -9 26 -11 15 -11 15 3 5 13 -11 15 -10 14 5 0 9 -4 23 -9
30 -4 6 -2 12 3 12 6 0 11 4 11 10 0 5 -8 7 -17 4 -11 -4 -14 -3 -7 3 6 4 10
16 8 26 -1 12 2 17 11 13 9 -3 12 0 8 9 -3 8 -8 13 -12 11 -3 -2 -7 29 -7 70
-1 58 2 74 12 70 8 -3 11 0 7 9 -3 8 -9 13 -13 10 -5 -3 -7 6 -4 21 3 19 1 24
-8 18 -10 -6 -10 -4 -2 7 15 20 16 61 1 52 -7 -4 -7 -1 1 10 8 9 10 22 6 28
-4 7 -3 9 2 6 6 -3 10 5 10 18 0 13 -4 21 -10 18 -5 -4 -7 1 -3 10 3 9 2 19
-4 23 -6 3 -3 12 8 21 10 8 12 12 6 8 -7 -3 -13 -2 -13 3 0 19 14 21 34 5 21
-18 21 -18 2 4 -10 13 -22 20 -27 18 -4 -3 -10 -1 -14 5 -3 5 1 10 10 10 11 0
13 5 7 18 -7 15 -8 67 -2 82 1 3 2 8 1 13 0 4 4 6 11 5 11 -3 13 1 17 35 1 8
4 8 11 -3 6 -10 3 -21 -12 -37 -12 -13 -18 -23 -14 -23 4 0 2 -9 -4 -20 -7
-14 -7 -20 0 -20 5 0 10 7 10 15 0 9 6 12 18 9 15 -5 15 -4 -1 6 -14 9 -16 15
-6 26 6 7 16 11 23 7 6 -3 8 -3 4 2 -4 4 -3 14 3 22 10 11 14 10 25 -4 12 -15
13 -16 8 -2 -3 10 0 20 5 24 6 3 9 11 5 16 -3 5 -10 7 -15 3 -5 -3 -7 -9 -4
-14 7 -12 -23 -6 -36 7 -8 8 2 17 37 33 27 12 53 25 58 28 5 3 6 0 2 -6 -4 -7
-3 -12 3 -12 5 0 11 5 13 12 3 7 7 4 12 -7 4 -11 4 -16 0 -13 -4 4 -16 3 -27
-3 -15 -9 -18 -8 -12 2 6 9 3 11 -9 6 -10 -4 -22 -7 -27 -7 -6 0 -8 -4 -4 -10
3 -5 12 -7 20 -3 11 4 13 1 9 -11 -3 -9 -1 -16 6 -16 6 0 9 4 5 9 -11 19 17
23 31 5 13 -17 13 -17 8 -1 -5 13 -2 16 12 11 16 -5 16 -4 4 5 -13 9 -13 11 3
11 9 0 17 -6 17 -12 0 -10 3 -9 9 1 7 10 13 11 31 1 12 -7 25 -8 29 -3 3 4 19
9 34 10 24 1 26 -1 15 -16 -11 -14 -11 -14 3 -3 9 7 25 10 35 6 16 -5 17 -4 4
5 -12 10 -11 11 10 9 14 -2 24 -9 22 -16 -2 -9 2 -11 10 -5 19 11 61 12 76 0
9 -7 12 -7 10 3 -2 7 3 15 10 17 6 3 12 -3 13 -14 0 -10 3 -13 6 -5 2 6 10 9
15 6 7 -4 8 -2 4 4 -4 7 -1 12 9 12 9 0 14 -4 11 -9 -7 -11 21 -8 31 4 4 4 2
5 -5 1 -7 -4 -15 -1 -18 8 -5 12 -10 13 -26 5 -14 -7 -23 -7 -34 2 -11 9 -14
9 -14 -1 0 -8 -3 -11 -6 -7 -3 3 -1 14 5 24 6 10 11 13 11 8 0 -6 12 -12 28
-13 21 -1 23 0 12 8 -8 5 -10 10 -4 10 6 0 17 -7 24 -15 7 -8 18 -15 24 -15 6
0 4 5 -4 10 -12 7 -12 13 -4 27 6 10 10 35 9 56 -2 20 1 37 7 37 5 0 7 -4 4
-8 -2 -4 -1 -14 4 -22 5 -8 7 0 6 23 -2 21 -6 40 -11 45 -4 4 -5 2 -1 -5 3 -6
3 -14 -2 -17 -5 -3 -10 18 -11 45 -1 28 -6 61 -11 73 l-8 23 -671 0 c-369 0
-676 -4 -683 -8z m209 -259 c10 8 15 10 10 5 -4 -4 1 -18 10 -29 17 -20 17
-20 1 -7 -10 7 -18 10 -18 7 0 -4 -9 -2 -20 4 -11 6 -20 16 -20 23 0 8 3 7 9
-2 8 -13 12 -13 28 -1z m137 -1 c-4 -7 -1 -10 7 -7 8 3 22 -1 32 -10 18 -16
24 -4 7 16 -7 9 -7 9 2 2 17 -14 31 -12 22 3 -5 8 -3 8 9 -2 16 -13 14 -36 -3
-26 -5 3 -12 1 -15 -5 -5 -8 -11 -7 -21 1 -8 6 -14 8 -14 5 0 -4 -9 -2 -20 4
-17 9 -20 30 -4 30 3 0 2 -5 -2 -11z m636 -10 c0 -5 -4 -9 -8 -9 -5 0 -9 7 -9
15 0 8 4 12 9 9 4 -3 8 -9 8 -15z m144 10 c10 9 16 8 26 -4 7 -8 9 -15 4 -16
-51 -6 -75 -6 -63 2 10 6 11 9 2 9 -7 0 -13 5 -13 11 0 8 5 8 15 -1 11 -9 18
-10 29 -1z m105 4 c14 11 14 10 2 -6 -17 -21 -6 -37 12 -16 6 8 11 12 10 10
-2 -2 1 -9 7 -16 6 -8 -2 -11 -31 -10 -27 1 -44 7 -50 18 -8 13 -6 15 7 10 13
-5 15 -3 9 8 -6 11 -5 12 5 2 11 -10 17 -10 29 0z m-175 -12 c15 -1 16 -4 6
-16 -9 -11 -17 -12 -31 -4 -11 5 -24 7 -29 4 -5 -3 -7 1 -4 8 3 8 13 14 22 12
9 -2 25 -4 36 -4z m237 -1828 c-12 -20 -14 -14 -5 12 4 9 9 14 11 11 3 -2 0
-13 -6 -23z m-1071 -3 c0 -5 -4 -10 -10 -10 -5 0 -10 5 -10 10 0 6 5 10 10 10
6 0 10 -4 10 -10z m480 6 c0 -3 -4 -8 -10 -11 -5 -3 -10 -1 -10 4 0 6 5 11 10
11 6 0 10 -2 10 -4z"/>
<path d="M2275 1870 c-3 -5 -1 -10 4 -10 6 0 11 5 11 10 0 6 -2 10 -4 10 -3 0
-8 -4 -11 -10z"/>
<path d="M995 2091 c-3 -5 -2 -12 3 -15 5 -3 9 1 9 9 0 17 -3 19 -12 6z"/>
<path d="M1035 1929 c-4 -6 -5 -12 -2 -15 2 -3 7 2 10 11 7 17 1 20 -8 4z"/>
<path d="M2526 1894 c-3 -8 -2 -13 3 -9 5 3 11 -1 14 -7 3 -7 4 -3 4 10 -1 25
-12 29 -21 6z"/>
<path d="M1266 1851 c-3 -4 1 -16 8 -26 10 -14 15 -15 21 -5 5 9 4 11 -3 6
-11 -6 -16 6 -13 27 1 10 -7 9 -13 -2z"/>
<path d="M1233 1825 c0 -8 4 -12 9 -9 5 3 6 10 3 15 -9 13 -12 11 -12 -6z"/>
<path d="M1630 1836 c0 -2 8 -10 18 -17 15 -13 16 -12 3 4 -13 16 -21 21 -21
13z"/>
<path d="M1996 1831 c-12 -5 -15 -10 -9 -14 6 -4 16 0 23 8 14 17 13 17 -14 6z"/>
<path d="M1420 1825 c0 -7 30 -13 34 -7 3 4 -4 9 -15 9 -10 1 -19 0 -19 -2z"/>
<path d="M276 1702 c-3 -5 1 -9 9 -9 8 0 12 4 9 9 -3 4 -7 8 -9 8 -2 0 -6 -4
-9 -8z"/>
<path d="M702 1677 c-8 -10 -5 -16 11 -26 18 -11 20 -11 10 0 -15 16 -17 33
-3 24 6 -3 10 -1 10 4 0 15 -15 14 -28 -2z"/>
<path d="M1936 1678 c3 -5 10 -6 15 -3 13 9 11 12 -6 12 -8 0 -12 -4 -9 -9z"/>
<path d="M278 1673 c7 -3 16 -2 19 1 4 3 -2 6 -13 5 -11 0 -14 -3 -6 -6z"/>
<path d="M1930 1581 c0 -5 8 -15 18 -22 15 -12 16 -12 5 2 -7 9 -10 19 -6 22
3 4 1 7 -5 7 -7 0 -12 -4 -12 -9z"/>
<path d="M270 1559 c0 -5 5 -7 10 -4 6 3 10 8 10 11 0 2 -4 4 -10 4 -5 0 -10
-5 -10 -11z"/>
<path d="M630 1500 c0 -5 5 -10 10 -10 6 0 10 5 10 10 0 6 -4 10 -10 10 -5 0
-10 -4 -10 -10z"/>
<path d="M226 1481 c-10 -11 -15 -25 -11 -30 7 -12 -22 -10 -42 2 -9 6 -11 3
-7 -7 10 -25 34 -26 57 -3 12 12 25 21 29 20 7 -3 5 24 -3 32 -3 3 -14 -4 -23
-14z m24 5 c0 -2 -8 -10 -17 -17 -16 -13 -17 -12 -4 4 13 16 21 21 21 13z"/>
<path d="M627 1473 c-13 -12 -7 -22 12 -20 11 0 17 6 14 14 -6 14 -16 17 -26
6z"/>
<path d="M110 1446 c0 -2 7 -7 16 -10 8 -3 12 -2 9 4 -6 10 -25 14 -25 6z"/>
<path d="M595 1440 c-3 -5 -1 -10 4 -10 6 0 11 5 11 10 0 6 -2 10 -4 10 -3 0
-8 -4 -11 -10z"/>
<path d="M966 1442 c-2 -4 4 -8 14 -8 10 0 16 4 14 8 -3 4 -9 8 -14 8 -5 0
-11 -4 -14 -8z"/>
<path d="M1934 1286 c0 -13 4 -22 8 -20 9 6 6 44 -3 44 -4 0 -6 -11 -5 -24z"/>
<path d="M1940 1226 c0 -2 8 -10 18 -17 15 -13 16 -12 3 4 -13 16 -21 21 -21
13z"/>
<path d="M1926 852 c-3 -5 1 -9 9 -9 8 0 12 4 9 9 -3 4 -7 8 -9 8 -2 0 -6 -4
-9 -8z"/>
<path d="M1935 531 c-3 -5 -2 -12 3 -15 5 -3 9 1 9 9 0 17 -3 19 -12 6z"/>
<path d="M2550 160 c0 -5 5 -10 11 -10 5 0 7 5 4 10 -3 6 -8 10 -11 10 -2 0
-4 -4 -4 -10z"/>
<path d="M2550 101 c0 -6 4 -13 10 -16 6 -3 7 1 4 9 -7 18 -14 21 -14 7z"/>
<path d="M2526 81 c-3 -5 1 -11 9 -14 9 -4 12 -1 8 9 -6 16 -10 17 -17 5z"/>
<path d="M1395 40 c-3 -5 -1 -10 4 -10 6 0 11 5 11 10 0 6 -2 10 -4 10 -3 0
-8 -4 -11 -10z"/>
<path d="M1516 42 c-7 -12 5 -16 33 -13 7 2 11 -2 8 -6 -7 -11 43 -11 60 0 6
4 13 2 15 -4 3 -8 13 -6 31 6 15 10 25 20 23 23 -3 3 -12 -1 -21 -8 -12 -10
-15 -10 -15 1 0 11 -2 11 -10 -1 -5 -8 -10 -11 -10 -6 0 6 -5 5 -12 -2 -16
-16 -31 -15 -22 1 4 6 4 9 -1 5 -4 -4 -14 -3 -22 3 -9 9 -17 8 -27 0 -11 -9
-15 -9 -18 1 -3 9 -6 9 -12 0z"/>
<path d="M1763 27 c0 -12 1 -16 4 -8 4 9 8 10 12 3 4 -7 11 -4 19 8 7 12 8 20
2 20 -5 0 -10 -5 -10 -11 0 -8 -4 -8 -13 -1 -10 8 -13 6 -14 -11z"/>
<path d="M1913 37 c0 -8 6 -14 13 -14 7 0 10 6 7 14 -3 7 -8 13 -12 13 -4 0
-8 -6 -8 -13z"/>
<path d="M2116 34 c-4 -9 -2 -22 4 -28 8 -8 10 -7 5 4 -4 11 1 16 15 17 11 1
18 -2 16 -6 -3 -4 1 -8 9 -8 10 0 12 4 5 12 -5 7 -7 15 -3 18 3 4 1 7 -5 7 -6
0 -14 -5 -18 -11 -5 -8 -9 -8 -14 1 -5 8 -9 7 -14 -6z"/>
<path d="M2247 34 c5 -16 4 -17 -8 -7 -11 9 -18 8 -33 -3 -11 -8 -15 -14 -9
-14 7 0 15 5 18 10 4 6 11 8 16 4 5 -3 6 -11 2 -17 -5 -8 -2 -8 9 0 8 7 17 11
19 8 3 -2 10 5 17 15 7 12 8 20 2 20 -5 0 -10 -5 -10 -11 0 -8 -5 -7 -15 1
-13 11 -14 10 -8 -6z"/>
<path d="M2363 27 c0 -12 1 -16 4 -8 4 9 8 10 12 3 4 -7 11 -4 19 8 7 12 8 20
2 20 -5 0 -10 -5 -10 -11 0 -8 -4 -8 -13 -1 -10 8 -13 6 -14 -11z"/>
</g>
</svg>
