<?xml version="1.0" standalone="no"?>
<!DOCTYPE svg PUBLIC "-//W3C//DTD SVG 20010904//EN"
 "http://www.w3.org/TR/2001/REC-SVG-20010904/DTD/svg10.dtd">
<svg version="1.0" xmlns="http://www.w3.org/2000/svg"
 width="260.000000pt" height="260.000000pt" viewBox="0 0 260.000000 260.000000"
 preserveAspectRatio="xMidYMid meet">
<metadata>
Created by potrace 1.11, written by Peter Selinger 2001-2013
</metadata>
<g transform="translate(0.000000,260.000000) scale(0.100000,-0.100000)"
fill="#000000" stroke="none">
<path d="M241 2537 c-5 -13 -12 -41 -15 -63 -4 -21 -13 -70 -21 -109 -8 -38
-17 -86 -20 -105 -3 -19 -8 -42 -10 -50 -2 -8 -6 -31 -9 -50 -5 -30 -56 -302
-70 -365 -2 -11 -7 -40 -11 -65 -9 -54 -11 -64 -29 -160 -18 -90 -14 -93 85
-94 10 0 15 -5 12 -12 -2 -7 -12 -10 -21 -7 -9 4 -6 -3 8 -14 19 -16 29 -19
43 -11 13 6 23 5 35 -4 9 -8 13 -8 9 -1 -4 6 5 26 20 44 16 18 24 30 18 27 -5
-3 -16 0 -23 8 -7 8 -9 14 -5 14 4 0 19 9 33 20 18 15 20 18 6 13 -13 -4 -17
-3 -12 5 4 7 2 12 -4 12 -6 0 -10 -7 -8 -16 2 -10 -3 -18 -10 -20 -7 -1 -8 0
-2 3 8 3 7 9 -1 19 -9 11 -9 14 1 14 7 0 10 7 6 15 -5 13 -2 14 15 4 11 -6 23
-8 27 -5 3 3 -1 6 -9 6 -12 0 -11 2 1 11 13 9 12 10 -2 5 -10 -3 -18 -1 -18 5
0 6 -6 7 -12 3 -9 -5 -9 -2 1 9 7 9 10 17 6 17 -4 0 -2 7 5 15 10 12 10 15 0
15 -10 0 -10 3 0 15 7 8 9 15 5 15 -4 0 -2 6 4 13 6 8 7 18 3 22 -4 5 -1 5 6
1 7 -4 10 -11 7 -16 -3 -4 2 -11 10 -14 13 -5 14 -2 4 17 -7 12 -17 25 -23 29
-7 5 -6 8 3 8 10 0 11 3 2 14 -9 11 -8 15 5 20 13 5 14 9 5 20 -9 11 -9 16 0
22 8 4 9 3 5 -4 -4 -7 -2 -12 3 -12 13 0 17 58 8 115 -1 6 9 9 23 8 14 -1 19
1 13 3 -7 3 -13 12 -13 20 0 9 -5 12 -12 8 -7 -4 -8 -3 -4 5 4 6 11 9 16 6 5
-3 12 0 16 6 4 8 3 9 -4 5 -7 -4 -12 -3 -12 3 0 14 20 25 21 12 2 -14 4 -22
13 -46 8 -21 40 -106 52 -140 4 -11 8 -24 10 -30 1 -5 26 -77 54 -160 52 -149
69 -179 96 -168 12 5 19 -7 15 -29 0 -5 4 -8 10 -8 6 0 8 7 5 16 -3 8 -2 13 3
10 5 -3 14 1 21 9 7 8 16 13 19 10 4 -2 8 2 8 10 0 8 -4 12 -8 9 -4 -2 -10 0
-13 5 -3 5 3 11 14 14 14 4 18 10 13 23 -4 11 -3 15 5 10 6 -3 14 -1 18 5 4 8
3 9 -4 5 -7 -4 -12 -2 -12 5 0 8 -5 7 -17 -2 -15 -12 -16 -12 -8 1 5 8 10 20
11 27 1 6 6 19 11 28 8 14 11 12 22 -11 11 -24 10 -26 -9 -21 -11 3 -17 1 -14
-4 12 -20 37 -3 40 26 2 16 0 25 -4 18 -5 -7 -11 -3 -19 13 -10 21 -9 22 6 15
11 -6 21 -4 30 6 12 13 11 14 -9 8 -14 -5 -20 -3 -16 3 3 6 1 12 -6 14 -7 3
-5 7 6 11 11 5 15 3 10 -5 -4 -7 -3 -8 4 -4 12 7 12 33 -1 54 -8 12 -6 13 23
16 9 0 14 9 12 20 -2 10 1 15 7 12 5 -4 12 -2 16 4 4 6 11 7 17 4 6 -4 8 -2 4
4 -6 10 -36 9 -54 -2 -5 -3 -9 1 -9 8 0 8 6 12 12 9 7 -2 12 4 12 14 0 39 3
43 31 39 19 -2 29 2 29 10 0 9 -6 10 -16 5 -10 -6 -21 -4 -29 5 -10 12 -9 13
7 11 11 -1 20 3 21 8 1 6 6 16 12 23 6 6 7 12 2 12 -5 0 -3 4 4 9 11 6 10 11
-3 25 -15 15 -15 16 2 16 17 1 17 2 -1 15 -11 8 -16 15 -10 15 15 0 35 -16 32
-26 -1 -5 3 -31 10 -59 6 -27 14 -63 17 -80 3 -16 10 -52 15 -80 5 -27 14 -75
20 -105 15 -81 17 -91 25 -138 7 -46 15 -52 63 -56 17 -1 38 -9 48 -16 16 -14
17 -13 11 5 -7 20 -7 20 8 1 13 -18 19 -15 16 6 0 4 8 5 19 3 11 -2 20 2 21 8
0 7 2 24 3 40 1 15 -1 27 -5 27 -3 0 -6 6 -6 13 0 6 -4 21 -8 32 -5 16 -5 17
4 5 7 -9 11 -10 11 -3 0 6 -5 15 -11 18 -6 4 -8 13 -5 21 3 8 0 14 -5 14 -6 0
-9 9 -6 20 3 11 1 20 -5 20 -6 0 -8 7 -5 15 4 8 2 17 -4 20 -5 4 -8 22 -6 40
2 19 0 32 -4 29 -5 -3 -9 2 -9 10 0 10 6 14 18 10 9 -2 7 1 -5 7 -13 7 -23 16
-23 21 0 5 4 7 10 3 5 -3 3 7 -5 22 -13 25 -13 29 3 35 16 6 16 7 -1 7 -10 1
-15 6 -12 11 3 6 0 10 -7 10 -9 0 -9 3 2 10 11 7 11 10 2 10 -7 0 -10 5 -7 10
3 6 2 10 -4 10 -13 0 -10 43 4 52 6 5 3 8 -7 8 -10 0 -18 5 -18 10 0 6 5 10
11 10 6 0 3 7 -5 16 -9 9 -14 26 -12 40 3 13 1 24 -4 24 -4 0 -7 13 -6 29 1
17 -2 28 -6 25 -4 -3 -8 0 -8 5 0 6 6 11 13 11 6 0 4 5 -7 11 -15 9 -16 13 -5
20 12 7 12 9 0 9 -11 0 -9 4 5 14 18 14 18 14 0 13 -10 -1 -21 4 -24 12 -3 10
0 11 9 5 11 -6 12 -5 2 8 -7 8 -10 18 -6 21 3 4 2 7 -4 7 -6 0 -9 11 -8 25 2
14 -1 25 -7 25 -6 0 -8 11 -6 25 3 14 1 25 -5 25 -6 0 -8 2 -5 5 3 3 -3 33
-12 68 l-17 62 -49 0 -48 0 -39 -125 c-21 -69 -56 -181 -77 -250 -73 -237 -99
-315 -101 -302 -2 18 -4 24 -18 57 -7 17 -14 40 -14 52 -1 13 -6 23 -10 23 -5
0 -6 4 -3 9 4 5 0 11 -6 14 -10 3 -10 8 1 21 11 13 11 16 2 14 -14 -3 -44 68
-36 82 3 5 2 10 -3 12 -12 5 -63 169 -56 180 5 7 2 8 -6 3 -10 -6 -12 -4 -7 8
4 10 2 17 -4 17 -6 0 -9 7 -5 15 3 8 1 15 -4 15 -6 0 -10 7 -10 16 0 9 5 12
12 8 7 -4 8 -3 4 5 -4 6 -12 8 -18 5 -7 -5 -9 0 -6 14 4 12 3 20 -1 17 -5 -2
-14 15 -21 38 -15 50 -23 57 -73 57 -30 0 -39 -5 -46 -23z m555 -589 c-3 -13
-5 -25 -6 -28 -2 -3 -2 -9 -1 -13 1 -5 -3 -6 -9 -2 -6 3 -8 11 -5 16 4 5 0 9
-7 9 -8 0 -6 5 5 11 9 6 15 14 12 20 -4 5 -1 9 4 9 6 0 9 -10 7 -22z m-491
-77 c3 -5 2 -12 -3 -15 -5 -3 -9 1 -9 9 0 17 3 19 12 6z m349 -339 c3 -5 -1
-9 -9 -9 -8 0 -12 4 -9 9 3 4 7 8 9 8 2 0 6 -4 9 -8z m-415 -58 c-6 -7 -16
-11 -22 -7 -6 4 -8 0 -5 -9 4 -10 0 -14 -15 -13 -12 1 -25 -2 -28 -8 -4 -5 -9
-5 -11 -1 -3 5 3 18 14 29 19 20 19 20 12 0 -7 -19 -7 -19 13 -2 11 9 23 14
26 10 4 -3 7 1 7 11 0 9 5 14 10 11 8 -5 7 -11 -1 -21z m391 1 c-7 -9 -15 -13
-17 -11 -7 7 7 26 19 26 6 0 6 -6 -2 -15z"/>
<path d="M1578 2333 c19 -7 14 -22 -6 -16 -10 2 -27 -6 -41 -21 -14 -14 -20
-26 -15 -26 5 0 2 -5 -6 -11 -13 -9 -13 -10 0 -6 8 2 15 9 15 15 0 5 3 14 7
18 13 12 -1 -37 -14 -54 -9 -10 -9 -13 -1 -9 6 4 14 3 18 -3 3 -5 1 -10 -4
-10 -6 0 -11 -5 -11 -11 0 -5 5 -7 11 -3 8 4 8 0 0 -15 -7 -11 -9 -22 -6 -22
3 -1 10 -3 15 -4 6 -1 15 -3 21 -4 5 0 8 -5 4 -10 -3 -5 -1 -12 5 -16 6 -4 8
-10 5 -15 -3 -5 -1 -11 4 -14 5 -4 12 -2 16 4 4 6 11 8 16 4 5 -3 7 -10 4 -15
-3 -5 1 -6 10 -2 10 3 21 0 27 -8 8 -11 9 -10 4 4 -3 9 -1 17 4 17 5 0 7 8 3
18 -3 9 -3 14 1 10 4 -3 9 -14 10 -25 2 -11 10 -17 21 -15 10 2 14 -1 10 -8
-4 -6 -1 -9 7 -8 7 2 18 12 25 23 7 11 12 16 13 11 0 -5 10 -1 23 10 20 17 20
16 -2 -9 -14 -15 -21 -30 -18 -34 4 -3 7 -1 7 5 0 13 27 12 48 -1 6 -5 12 -6
12 -2 0 3 13 -1 29 -9 16 -9 32 -12 35 -8 4 3 4 -1 0 -11 -3 -9 -11 -14 -18
-10 -8 5 -8 3 0 -8 6 -8 10 -22 9 -32 -2 -9 1 -15 6 -11 5 3 9 -2 9 -10 0 -8
8 -20 18 -25 9 -6 12 -11 5 -11 -6 0 -10 -11 -8 -25 1 -14 -1 -28 -6 -30 -4
-3 -6 -14 -4 -25 2 -11 -1 -22 -6 -25 -5 -4 -7 -10 -4 -15 3 -5 1 -11 -5 -15
-5 -3 -10 -15 -10 -26 0 -11 -4 -18 -9 -15 -5 3 -11 -1 -14 -9 -4 -10 -1 -12
11 -8 14 6 15 4 5 -9 -7 -8 -10 -18 -6 -21 3 -4 -2 -7 -13 -7 -11 0 -15 -3 -8
-8 16 -10 14 -44 -2 -38 -9 3 -11 -1 -7 -11 5 -12 3 -14 -7 -8 -9 5 -11 4 -6
-3 4 -7 14 -12 22 -12 8 0 12 -5 9 -10 -4 -6 -10 -8 -14 -6 -4 3 -8 -1 -8 -9
0 -8 4 -12 8 -9 8 5 5 -20 -6 -47 -3 -10 -2 -20 4 -24 7 -3 8 0 5 9 -3 9 -2
16 4 16 12 0 11 -18 -2 -39 -7 -11 -5 -13 8 -8 9 4 15 3 11 -2 -3 -6 4 -27 16
-48 l21 -38 -22 20 -23 20 14 -22 c8 -13 20 -23 27 -23 8 0 10 -5 6 -12 -5 -7
-2 -9 9 -5 11 4 14 2 10 -9 -3 -7 -9 -14 -15 -14 -5 0 -6 -5 -3 -11 5 -6 12
-4 22 8 13 17 14 17 9 1 -5 -18 3 -22 34 -19 13 2 13 1 0 -8 -14 -10 -7 -16
15 -11 5 1 1 -8 -9 -19 -11 -12 -14 -21 -8 -21 6 0 12 6 15 13 3 9 9 7 24 -6
11 -9 23 -15 26 -12 4 3 5 2 2 -1 -2 -4 1 -16 6 -28 6 -12 -3 -5 -21 14 -17
19 -29 30 -26 23 4 -6 0 -14 -6 -17 -7 -3 -5 -4 6 -3 11 1 22 -7 27 -22 7 -19
7 -22 -3 -13 -9 7 -19 5 -36 -8 -13 -11 -23 -21 -22 -24 1 -21 -1 -26 -10 -21
-12 8 -40 -12 -40 -28 0 -6 7 -2 16 9 14 18 15 18 4 -3 -6 -13 -14 -22 -18
-22 -22 4 -30 -4 -28 -26 2 -16 -1 -22 -8 -18 -17 11 -37 12 -30 2 3 -5 10 -7
15 -4 5 4 9 -3 9 -14 0 -15 -4 -19 -17 -14 -16 6 -17 5 -3 -12 9 -11 10 -16 3
-11 -7 4 -13 2 -13 -3 0 -6 5 -11 11 -11 5 0 7 -5 4 -10 -5 -8 -12 -7 -23 2
-15 11 -15 11 -6 -2 19 -26 25 -52 11 -45 -6 4 -3 -1 7 -9 17 -14 17 -16 4
-16 -9 0 -20 -5 -24 -12 -5 -7 -2 -9 8 -5 24 9 29 -3 10 -22 -10 -9 -13 -13
-8 -9 18 15 28 8 15 -9 -12 -15 -12 -16 4 -10 9 3 17 2 17 -3 0 -10 -15 -14
-35 -10 -5 1 -2 -7 8 -17 11 -13 13 -23 7 -29 -7 -7 -6 -11 4 -11 8 0 13 4 10
9 -3 4 0 8 5 8 14 0 14 -17 0 -26 -8 -5 -6 -10 5 -16 9 -5 14 -14 10 -19 -3
-5 0 -17 8 -26 11 -14 11 -16 -3 -11 -9 4 -16 1 -16 -8 0 -7 4 -11 8 -9 3 3
12 -2 19 -10 10 -12 10 -15 -2 -15 -8 0 -15 -7 -15 -15 0 -11 4 -12 13 -4 8 7
14 6 20 -2 4 -7 3 -9 -3 -6 -6 4 -13 -6 -15 -23 -4 -24 -2 -27 9 -19 16 14 17
-3 1 -19 -8 -8 -8 -12 -1 -12 11 0 11 -25 -1 -52 -5 -10 -6 -24 -3 -31 3 -8 1
-20 -5 -28 -8 -11 -9 -11 -4 3 3 10 2 19 -2 22 -4 3 -9 -5 -9 -17 -1 -12 3
-25 10 -29 7 -5 3 -8 -12 -8 -19 0 -21 -3 -12 -14 9 -11 9 -16 0 -22 -8 -4 -9
-3 -5 4 4 7 1 12 -8 12 -8 0 -18 -5 -22 -12 -4 -7 -3 -8 4 -4 19 12 14 -2 -9
-23 -12 -11 -28 -17 -37 -14 -11 5 -13 3 -7 -7 5 -8 4 -11 -3 -6 -5 3 -13 0
-16 -6 -3 -7 -3 -2 0 12 l7 25 -21 -25 c-18 -21 -23 -23 -31 -10 -9 13 -12 13
-23 1 -11 -11 -11 -13 1 -6 10 6 12 4 7 -4 -9 -14 -54 -12 -75 4 -11 8 -13 6
-9 -5 4 -11 0 -16 -13 -16 -14 0 -15 3 -7 13 6 8 8 16 4 20 -3 3 -6 1 -6 -6 0
-7 -7 -11 -14 -8 -10 4 -13 1 -9 -9 3 -8 2 -14 -3 -13 -21 4 -35 -2 -29 -11 3
-5 -2 -10 -12 -11 -10 0 -13 -3 -5 -6 6 -2 12 -14 12 -25 0 -13 -5 -18 -14
-15 -10 4 -13 1 -9 -8 3 -8 10 -12 16 -8 6 4 8 -3 3 -21 -5 -21 -4 -26 6 -21
7 4 4 -1 -7 -11 -18 -15 -18 -16 -1 -10 14 5 17 2 12 -10 -5 -12 -1 -14 17 -9
22 6 22 6 2 -11 -16 -14 -17 -16 -2 -11 9 4 17 2 17 -3 0 -6 4 -10 10 -10 5 0
7 8 4 17 -5 16 -4 16 6 0 9 -14 15 -16 26 -6 10 8 14 8 14 0 0 -6 -4 -12 -10
-12 -5 -1 -14 -2 -19 -3 -5 0 -12 -4 -16 -8 -4 -3 1 -5 12 -4 25 5 38 -5 22
-15 -10 -6 -10 -9 -2 -9 6 0 15 5 18 10 5 8 11 8 20 0 9 -8 15 -8 20 0 3 5 15
10 26 10 11 0 18 -4 15 -8 -2 -4 0 -14 6 -22 8 -12 9 -12 4 2 -6 21 12 35 20
14 3 -8 13 -17 22 -21 13 -5 13 -2 -3 15 -10 11 -13 20 -7 20 6 0 13 -4 16 -9
4 -5 14 -8 24 -6 9 2 20 4 25 4 14 2 7 18 -8 18 -8 0 -11 -5 -8 -11 3 -6 2 -8
-2 -3 -13 11 -16 47 -5 47 6 0 9 -6 8 -12 -2 -7 3 -12 11 -10 8 2 18 -2 22 -9
4 -7 17 -13 28 -14 11 -1 18 1 16 5 -2 4 3 16 11 26 9 10 13 13 9 7 -3 -7 -2
-13 3 -13 16 0 22 13 11 26 -9 11 0 13 29 5 1 -1 -2 -10 -7 -20 -9 -16 -8 -18
10 -14 11 3 17 9 12 12 -4 3 -9 15 -10 26 -1 20 -1 20 13 1 8 -11 14 -14 14
-8 0 7 5 12 10 12 7 0 6 -8 -1 -23 -11 -20 -11 -21 4 -8 16 13 18 35 4 58 -10
16 20 10 36 -7 8 -9 8 -11 0 -6 -6 3 -14 3 -17 -2 -2 -4 4 -9 15 -9 21 -2 23
25 4 39 -6 5 -6 8 2 8 7 0 17 -8 23 -18 10 -15 11 -15 6 3 l-6 20 16 -20 c14
-17 16 -17 11 -2 -4 11 -1 20 8 23 8 4 15 11 15 16 0 7 -5 6 -13 -1 -10 -8
-14 -7 -14 4 0 7 3 14 6 13 24 -2 37 5 38 22 1 11 -2 18 -8 15 -5 -4 -9 -1 -9
4 0 6 4 11 10 11 5 0 7 8 3 18 -3 9 -3 14 1 10 4 -3 8 -12 10 -20 3 -18 25
-55 26 -42 0 5 -5 15 -12 22 -9 9 -8 12 6 12 16 0 16 1 2 16 -12 11 -13 20 -6
33 5 10 6 22 2 26 -4 5 -1 5 6 1 7 -4 12 -1 12 9 0 10 -5 13 -12 9 -10 -6 -10
-5 -1 8 7 8 9 19 5 23 -4 5 -1 5 6 1 7 -4 10 -11 7 -16 -3 -5 -1 -11 4 -14 5
-4 7 7 4 25 -3 19 -1 29 6 25 5 -4 12 -2 15 3 7 10 -20 9 -30 -2 -4 -4 -11 -7
-16 -7 -5 0 -2 7 6 16 9 8 16 20 16 26 0 6 7 5 18 -3 15 -13 16 -12 3 4 -10
12 -17 15 -25 7 -5 -5 -15 -10 -21 -10 -6 0 -7 3 0 8 6 4 17 16 25 27 8 11 11
17 6 13 -5 -4 -15 0 -24 8 -12 12 -12 18 -2 27 10 9 11 9 5 -2 -5 -10 -4 -12
4 -7 6 4 9 12 6 17 -4 5 -1 9 5 9 6 0 8 5 4 11 -3 6 -9 7 -13 3 -11 -16 -31
-14 -25 1 4 8 10 15 15 15 5 0 9 5 9 12 0 6 -3 8 -7 5 -3 -4 -12 1 -18 10 -11
14 -10 19 3 29 12 9 12 13 2 19 -9 6 -11 4 -5 -5 6 -9 4 -11 -4 -5 -9 5 -10
10 -2 18 14 14 14 27 0 27 -5 0 -7 -4 -4 -10 10 -16 -1 -11 -16 7 -10 11 -10
14 -1 9 7 -4 12 -1 12 9 0 10 5 13 12 9 7 -4 8 -3 4 5 -6 9 -11 9 -24 -1 -14
-12 -14 -10 -3 9 6 13 17 23 24 23 7 0 -3 9 -21 20 -23 14 -32 26 -28 36 3 9
6 18 6 20 0 3 5 2 12 -2 6 -4 8 -3 4 4 -3 5 0 13 6 16 7 3 4 4 -8 1 -14 -4
-21 0 -21 9 0 9 5 13 11 10 6 -3 0 4 -14 16 -19 16 -20 19 -5 12 15 -7 24 -6
34 5 12 13 11 14 -7 9 -12 -4 -23 -2 -28 5 -4 7 -3 9 4 5 6 -3 13 -2 17 4 3 5
1 10 -5 10 -6 0 -8 5 -5 10 4 6 11 7 17 4 7 -4 8 -2 4 4 -4 7 -4 18 1 25 11
18 13 38 2 31 -5 -3 -6 -10 -3 -16 5 -7 2 -8 -6 -3 -8 5 -11 4 -7 -2 4 -6 -1
-17 -11 -24 -16 -13 -16 -13 -2 5 8 11 14 22 13 25 -1 3 9 19 23 34 14 15 23
35 22 45 -2 9 4 17 12 17 8 1 14 6 13 13 -2 7 2 12 8 12 6 0 8 -7 5 -16 -5
-12 -2 -15 10 -10 8 3 25 6 36 6 18 0 18 1 4 16 -20 19 -20 21 -1 21 8 0 12
-4 10 -8 -3 -4 8 -9 25 -11 16 -2 27 -1 24 3 -6 11 31 30 41 21 4 -4 2 3 -4
16 -14 26 -23 29 -14 5 7 -19 5 -18 -17 11 -8 11 -10 17 -4 13 7 -4 15 0 18 9
4 10 2 13 -6 8 -6 -4 -8 -3 -4 4 3 5 0 13 -6 16 -7 3 -2 4 12 1 14 -3 19 -2
13 1 -7 3 -13 15 -13 25 0 13 -4 18 -12 13 -8 -5 -9 -2 -5 10 4 9 3 14 -2 11
-5 -3 -13 0 -16 6 -4 5 -14 8 -22 5 -9 -4 -11 -2 -7 6 5 8 2 9 -9 5 -9 -3 -19
-2 -22 4 -4 5 -10 7 -15 4 -5 -3 -12 0 -16 6 -5 8 -3 9 6 4 9 -5 11 -4 6 4 -4
6 -13 11 -19 10 -7 -1 -20 1 -30 6 -15 6 -16 10 -5 16 11 7 10 11 -2 18 -8 5
-18 7 -22 5 -4 -3 -8 0 -8 5 0 6 5 11 10 11 6 0 5 6 -2 14 -7 8 -15 12 -18 11
-3 -2 -7 5 -7 16 -1 10 3 19 8 19 6 0 7 -4 4 -10 -3 -5 -2 -10 4 -10 5 0 8 12
7 28 -2 15 -8 27 -14 27 -6 0 -14 4 -19 9 -4 5 -3 6 3 3 13 -8 40 20 30 30 -3
3 -6 1 -6 -5 0 -7 -5 -12 -10 -12 -6 0 -4 13 5 30 14 27 14 30 0 30 -8 0 -15
4 -15 9 0 4 12 6 28 4 l27 -4 -30 15 c-16 8 -24 15 -16 15 11 1 11 4 0 19 -11
14 -11 15 1 5 21 -19 35 -16 19 4 -12 15 -12 16 4 10 12 -5 16 -3 11 5 -5 8
-2 9 10 5 11 -4 15 -3 11 4 -4 6 -14 8 -24 4 -13 -5 -13 -4 -4 6 10 10 10 16
-2 29 -13 14 -13 17 0 17 8 0 12 -4 9 -9 -3 -4 0 -8 5 -8 18 0 12 38 -6 50
-15 10 -15 11 -1 6 19 -6 30 24 16 48 -7 12 -6 16 4 14 8 -2 13 8 12 29 0 20
4 29 12 26 6 -2 15 1 20 8 4 8 3 10 -5 5 -6 -4 -14 0 -17 8 -3 9 -11 13 -18 9
-6 -4 -5 1 3 10 11 14 11 17 0 17 -12 0 -12 2 0 9 8 6 10 14 5 22 -14 23 -13
40 2 46 8 3 14 9 14 14 0 6 -7 6 -18 0 -13 -7 -19 -6 -20 2 0 7 -4 23 -8 36
-4 15 -3 22 3 18 5 -3 10 0 10 7 0 8 -7 12 -14 9 -17 -7 -43 26 -36 44 3 9 0
11 -10 7 -10 -3 -18 2 -22 15 -4 14 -11 18 -23 14 -15 -6 -16 -5 -2 12 9 11
10 16 3 11 -7 -4 -13 -2 -13 3 0 6 -5 11 -11 11 -5 0 -7 -5 -3 -12 4 -7 3 -8
-5 -4 -6 4 -9 11 -6 16 3 4 -2 11 -11 14 -8 3 -12 2 -9 -4 3 -6 1 -10 -4 -10
-10 0 -16 22 -12 43 1 5 -3 6 -9 2 -6 -3 -8 -10 -6 -14 3 -4 -2 -8 -10 -8 -8
0 -13 6 -10 13 3 7 -5 20 -17 31 l-22 18 19 -22 c19 -23 19 -23 -3 -23 -12 0
-19 4 -16 10 3 6 1 10 -6 10 -6 0 -18 8 -26 18 -13 15 -13 14 -2 -7 10 -21 9
-23 -6 -18 -9 4 -19 7 -21 7 -3 0 -3 4 0 8 3 5 0 9 -7 10 -7 0 -24 3 -39 5
-15 2 -25 1 -23 -3 3 -5 -2 -11 -11 -14 -8 -3 -12 -2 -9 4 3 6 -1 10 -9 10 -9
0 -16 -6 -16 -12 0 -10 -3 -9 -9 1 -10 16 -78 24 -86 10 -4 -5 0 -6 8 -3 8 3
17 1 21 -4 7 -12 -24 -8 -51 6 -12 7 -25 12 -30 11 -4 0 -2 -3 5 -6z m242 -18
c0 -2 -9 -3 -19 -2 -11 0 -18 5 -15 9 4 6 34 0 34 -7z m-216 -197 c5 0 13 6
17 14 7 10 9 9 9 -4 0 -10 5 -18 12 -18 6 0 9 -3 6 -6 -4 -3 -15 -1 -26 5 -13
7 -23 7 -32 -2 -10 -9 -11 -9 -6 0 3 6 2 14 -4 18 -6 4 -7 11 -3 18 4 7 9 5
13 -7 3 -10 10 -18 14 -18z m117 -3 c7 19 8 19 8 -1 1 -17 -5 -22 -22 -20 -18
1 -23 6 -19 20 5 18 5 18 15 0 10 -17 11 -17 18 1z m87 -6 c-2 -6 5 -13 15
-14 11 -2 22 -6 25 -9 5 -5 -32 -2 -48 4 -3 2 -9 2 -14 1 -5 -1 -4 5 4 13 15
19 21 20 18 5z m99 -121 c3 -22 2 -22 -9 -3 -17 28 -20 51 -5 36 6 -6 12 -21
14 -33z m206 -273 c-3 -9 -8 -14 -10 -11 -3 3 -2 9 2 15 9 16 15 13 8 -4z
m-18 -123 c-3 -3 -11 0 -18 7 -9 10 -8 11 6 5 10 -3 15 -9 12 -12z m10 -82
c-3 -5 -12 -10 -18 -10 -7 0 -6 4 3 10 19 12 23 12 15 0z m-105 -279 c0 -5 -7
-12 -16 -15 -14 -5 -15 -4 -4 9 14 17 20 19 20 6z m297 -54 c-1 -5 -11 -11
-20 -13 -9 -1 -15 2 -11 7 3 5 10 6 16 3 8 -5 9 -1 5 10 -4 11 -3 15 4 11 5
-4 8 -12 6 -18z m-187 -102 c0 -8 -3 -16 -7 -18 -5 -3 -8 5 -8 18 0 13 3 21 8
18 4 -2 7 -10 7 -18z m17 -281 c-3 -3 -12 -4 -19 -1 -8 3 -5 6 6 6 11 1 17 -2
13 -5z m-53 -561 c4 -10 1 -11 -13 -4 -10 6 -22 7 -26 3 -5 -4 -5 -2 -2 4 9
15 35 13 41 -3z m-197 -85 c13 15 13 15 3 -5 -5 -12 -16 -25 -23 -29 -6 -4 -9
-3 -4 1 4 5 -1 18 -10 29 -17 20 -17 20 2 4 17 -16 19 -16 32 0z m-152 -8 c-3
-5 -12 -10 -18 -10 -7 0 -6 4 3 10 19 12 23 12 15 0z m-65 -25 c14 -18 13 -19
-1 -8 -9 7 -19 10 -23 6 -4 -4 -4 1 0 10 3 10 7 17 8 15 1 -2 8 -12 16 -23z
m90 7 c0 -5 -7 -9 -15 -9 -8 0 -12 4 -9 9 3 4 9 8 15 8 5 0 9 -4 9 -8z m34 -8
c5 -14 4 -15 -9 -4 -17 14 -19 20 -6 20 5 0 12 -7 15 -16z"/>
<path d="M1496 2207 c3 -10 9 -15 12 -12 3 3 0 11 -7 18 -10 9 -11 8 -5 -6z"/>
<path d="M2110 2161 c0 -6 4 -13 10 -16 6 -3 7 1 4 9 -7 18 -14 21 -14 7z"/>
<path d="M2148 2093 c7 -3 16 -2 19 1 4 3 -2 6 -13 5 -11 0 -14 -3 -6 -6z"/>
<path d="M2164 2026 c1 -9 7 -21 13 -27 9 -9 11 -7 9 5 -1 9 -7 21 -13 27 -9
9 -11 7 -9 -5z"/>
<path d="M2174 1965 c3 -23 12 -26 13 -5 1 11 -2 20 -7 20 -4 0 -7 -7 -6 -15z"/>
<path d="M1889 1948 c-5 -18 -6 -38 -1 -34 7 8 12 36 6 36 -2 0 -4 -1 -5 -2z"/>
<path d="M320 1920 c6 -11 13 -20 16 -20 2 0 0 9 -6 20 -6 11 -13 20 -16 20
-2 0 0 -9 6 -20z"/>
<path d="M815 1921 c-3 -5 -2 -12 3 -15 5 -3 9 1 9 9 0 17 -3 19 -12 6z"/>
<path d="M1881 1886 c-9 -11 -9 -16 1 -22 7 -4 10 -4 6 1 -4 4 -3 14 3 22 6 7
9 13 6 13 -2 0 -10 -6 -16 -14z"/>
<path d="M326 1877 c3 -10 9 -15 12 -12 3 3 0 11 -7 18 -10 9 -11 8 -5 -6z"/>
<path d="M2165 1850 c-3 -6 1 -7 9 -4 18 7 21 14 7 14 -6 0 -13 -4 -16 -10z"/>
<path d="M753 1835 c0 -8 4 -15 9 -15 4 0 8 7 8 15 0 8 -4 15 -8 15 -5 0 -9
-7 -9 -15z"/>
<path d="M1856 1822 c-3 -5 1 -9 9 -9 8 0 12 4 9 9 -3 4 -7 8 -9 8 -2 0 -6 -4
-9 -8z"/>
<path d="M291 1783 c0 -4 4 -17 9 -28 8 -19 9 -19 9 2 1 12 -3 25 -9 28 -5 3
-10 3 -9 -2z"/>
<path d="M2155 1780 c3 -5 8 -10 11 -10 2 0 4 5 4 10 0 6 -5 10 -11 10 -5 0
-7 -4 -4 -10z"/>
<path d="M760 1755 c-7 -9 -11 -17 -9 -20 3 -2 10 5 17 15 14 24 10 26 -8 5z"/>
<path d="M719 1737 c6 -8 7 -18 3 -22 -4 -5 -1 -5 6 -1 10 6 10 11 1 22 -6 8
-14 14 -16 14 -3 0 0 -6 6 -13z"/>
<path d="M1065 1740 c-3 -6 1 -7 9 -4 18 7 21 14 7 14 -6 0 -13 -4 -16 -10z"/>
<path d="M274 1688 c1 -13 0 -27 -3 -33 -10 -19 -9 -32 5 -32 7 0 11 4 8 9 -3
4 1 8 8 8 8 0 9 3 3 8 -16 11 -19 46 -3 36 10 -6 10 -4 -1 9 -17 22 -19 21
-17 -5z"/>
<path d="M735 1699 c-4 -6 -5 -12 -2 -15 2 -3 7 2 10 11 7 17 1 20 -8 4z"/>
<path d="M266 1522 c-3 -5 1 -9 9 -9 8 0 12 4 9 9 -3 4 -7 8 -9 8 -2 0 -6 -4
-9 -8z"/>
<path d="M1113 1483 c-3 -10 -7 -21 -9 -24 -2 -3 2 -6 9 -6 7 0 12 11 12 24 0
28 -3 29 -12 6z"/>
<path d="M976 1454 c-3 -7 0 -16 6 -20 6 -4 8 -3 5 3 -4 6 0 13 8 17 8 3 17 1
20 -4 3 -4 -1 -10 -7 -13 -7 -2 -1 -4 15 -4 15 0 27 4 27 10 0 6 -3 7 -7 4 -3
-4 -13 -1 -21 5 -20 17 -40 18 -46 2z"/>
<path d="M1072 1458 c-15 -15 -16 -31 0 -26 6 2 12 12 14 21 3 20 2 21 -14 5z"/>
<path d="M1835 1460 c-3 -6 1 -7 9 -4 18 7 21 14 7 14 -6 0 -13 -4 -16 -10z"/>
<path d="M629 1443 c-13 -16 -12 -17 4 -4 9 7 17 15 17 17 0 8 -8 3 -21 -13z"/>
<path d="M130 1420 c0 -5 5 -10 11 -10 5 0 7 5 4 10 -3 6 -8 10 -11 10 -2 0
-4 -4 -4 -10z"/>
<path d="M2155 1391 c-3 -5 -2 -12 3 -15 5 -3 9 1 9 9 0 17 -3 19 -12 6z"/>
<path d="M2159 1107 c5 -5 7 -16 4 -24 -5 -12 -1 -11 15 3 26 22 27 25 5 17
-10 -4 -14 -2 -10 4 3 5 -1 10 -9 10 -9 0 -11 -4 -5 -10z"/>
<path d="M2135 1060 c-3 -5 -1 -10 4 -10 6 0 11 5 11 10 0 6 -2 10 -4 10 -3 0
-8 -4 -11 -10z"/>
<path d="M2102 838 c2 -6 10 -13 16 -14 7 -1 8 0 2 3 -5 2 -8 9 -4 14 3 5 0 9
-6 9 -7 0 -10 -5 -8 -12z"/>
<path d="M2155 660 c3 -5 8 -10 11 -10 2 0 4 5 4 10 0 6 -5 10 -11 10 -5 0 -7
-4 -4 -10z"/>
<path d="M1881 573 c7 -12 15 -20 18 -17 3 2 -3 12 -13 22 -17 16 -18 16 -5
-5z"/>
<path d="M1800 401 c0 -7 -5 -9 -12 -5 -7 5 -8 3 -3 -5 5 -9 10 -10 18 -2 6 6
8 14 4 18 -4 3 -7 1 -7 -6z"/>
<path d="M1655 360 c-3 -5 -1 -10 4 -10 6 0 11 5 11 10 0 6 -2 10 -4 10 -3 0
-8 -4 -11 -10z"/>
<path d="M2157 355 c-4 -8 -3 -16 1 -19 4 -3 9 4 9 15 2 23 -3 25 -10 4z"/>
</g>
</svg>
